G75*
%MOIN*%
%OFA0B0*%
%FSLAX24Y24*%
%IPPOS*%
%LPD*%
%AMOC8*
5,1,8,0,0,1.08239X$1,22.5*
%
%ADD10R,0.0236X0.0236*%
%ADD11R,0.0217X0.0472*%
%ADD12C,0.0428*%
%ADD13C,0.0025*%
%ADD14R,0.0984X0.0787*%
%ADD15R,0.1299X0.0787*%
%ADD16R,0.1220X0.0197*%
%ADD17R,0.0866X0.0236*%
%ADD18R,0.0315X0.0315*%
%ADD19R,0.0760X0.2100*%
%ADD20R,0.0630X0.0710*%
%ADD21R,0.0748X0.1339*%
%ADD22R,0.0961X0.0445*%
%ADD23R,0.0472X0.0217*%
%ADD24R,0.0630X0.0138*%
%ADD25R,0.0630X0.0236*%
%ADD26R,0.0709X0.0500*%
%ADD27R,0.0551X0.0551*%
%ADD28R,0.0787X0.0472*%
%ADD29R,0.0250X0.0106*%
%ADD30R,0.0354X0.0630*%
%ADD31R,0.0472X0.0787*%
%ADD32R,0.0591X0.0500*%
%ADD33R,0.0630X0.0118*%
%ADD34R,0.3150X0.3150*%
%ADD35R,0.0236X0.0236*%
%ADD36R,0.0433X0.0394*%
%ADD37R,0.0197X0.0098*%
%ADD38R,0.0354X0.0512*%
%ADD39R,0.0394X0.0433*%
%ADD40R,0.0276X0.0394*%
%ADD41R,0.1181X0.0591*%
D10*
X004753Y004650D03*
X005147Y004650D03*
X005147Y005100D03*
X004753Y005100D03*
X004447Y008100D03*
X004053Y008100D03*
X004553Y011500D03*
X004947Y011500D03*
X004947Y012000D03*
X004553Y012000D03*
X003550Y013203D03*
X003550Y013597D03*
X003550Y014403D03*
X003550Y014797D03*
X004050Y015003D03*
X004050Y015397D03*
X004850Y014097D03*
X005250Y014097D03*
X005650Y014097D03*
X006250Y014097D03*
X006650Y014097D03*
X007050Y014097D03*
X007450Y014097D03*
X007450Y013703D03*
X007050Y013703D03*
X006650Y013703D03*
X006250Y013703D03*
X005650Y013703D03*
X005250Y013703D03*
X004850Y013703D03*
X002250Y017703D03*
X002250Y018097D03*
X001750Y019403D03*
X001750Y019797D03*
X001150Y019797D03*
X001150Y019403D03*
X002553Y020800D03*
X002947Y020800D03*
X002947Y021300D03*
X002553Y021300D03*
X004250Y020797D03*
X004250Y020403D03*
X006850Y020403D03*
X006850Y020797D03*
X008150Y019997D03*
X008150Y019603D03*
X013553Y018000D03*
X013947Y018000D03*
X015553Y017600D03*
X015947Y017600D03*
X013947Y017100D03*
X013553Y017100D03*
X013553Y016200D03*
X013947Y016200D03*
X013947Y014700D03*
X013553Y014700D03*
X013553Y013700D03*
X013947Y013700D03*
X019350Y012197D03*
X019700Y012197D03*
X019700Y011803D03*
X019350Y011803D03*
X021450Y011803D03*
X021803Y011800D03*
X022197Y011800D03*
X021450Y012197D03*
X020247Y013700D03*
X019853Y013700D03*
X019853Y014700D03*
X020247Y014700D03*
X021903Y014800D03*
X022297Y014800D03*
X023553Y015200D03*
X023947Y015200D03*
X023947Y015600D03*
X023553Y015600D03*
X023150Y015603D03*
X023150Y015997D03*
X025653Y014950D03*
X025653Y014600D03*
X026047Y014600D03*
X026047Y014950D03*
X026047Y014250D03*
X025653Y014250D03*
X025647Y012500D03*
X025253Y012500D03*
X025250Y012097D03*
X025650Y012097D03*
X025650Y011703D03*
X025250Y011703D03*
X024250Y009397D03*
X024250Y009003D03*
X024653Y009000D03*
X025047Y009000D03*
X025047Y008650D03*
X024653Y008650D03*
X023447Y008200D03*
X023053Y008200D03*
X028300Y008097D03*
X028650Y008097D03*
X028650Y007703D03*
X028300Y007703D03*
X032200Y007497D03*
X032200Y007103D03*
X033750Y007503D03*
X034100Y007503D03*
X034450Y007503D03*
X034450Y007897D03*
X034100Y007897D03*
X033750Y007897D03*
X035550Y008903D03*
X035900Y008903D03*
X035900Y009297D03*
X035550Y009297D03*
X035453Y009650D03*
X035847Y009650D03*
X035847Y010000D03*
X035847Y010350D03*
X035847Y010700D03*
X035453Y010700D03*
X035453Y010350D03*
X035453Y010000D03*
X036603Y008200D03*
X036997Y008200D03*
X037350Y008197D03*
X037350Y007803D03*
X036997Y007800D03*
X036603Y007800D03*
X043950Y009703D03*
X043950Y010097D03*
X043950Y010503D03*
X043950Y010897D03*
X043047Y012000D03*
X042653Y012000D03*
X043653Y012500D03*
X044047Y012500D03*
X043047Y013000D03*
X042653Y013000D03*
X043253Y013500D03*
X043647Y013500D03*
X043647Y014200D03*
X043253Y014200D03*
X043253Y014700D03*
X043647Y014700D03*
X043647Y016400D03*
X043253Y016400D03*
X045050Y018103D03*
X045550Y018103D03*
X046050Y018103D03*
X046550Y018103D03*
X046550Y018497D03*
X046050Y018497D03*
X045550Y018497D03*
X045050Y018497D03*
X047753Y016400D03*
X048147Y016400D03*
X049553Y016700D03*
X049947Y016700D03*
X049947Y017300D03*
X049553Y017300D03*
X049553Y017700D03*
X049947Y017700D03*
X049947Y018300D03*
X049553Y018300D03*
X049553Y018700D03*
X049947Y018700D03*
X049947Y019300D03*
X049553Y019300D03*
X049553Y013300D03*
X049947Y013300D03*
X049947Y012700D03*
X049553Y012700D03*
X049553Y012300D03*
X049947Y012300D03*
X049947Y011700D03*
X049553Y011700D03*
X049553Y011300D03*
X049947Y011300D03*
X049947Y010700D03*
X049553Y010700D03*
X047247Y010600D03*
X046853Y010600D03*
X046853Y011100D03*
X047247Y011100D03*
X047247Y010000D03*
X046853Y010000D03*
X047650Y012553D03*
X047650Y012947D03*
X035647Y013550D03*
X035253Y013550D03*
X035147Y013200D03*
X034753Y013200D03*
X034603Y014500D03*
X034997Y014500D03*
X034997Y014850D03*
X034603Y014850D03*
X033900Y015703D03*
X033550Y015703D03*
X033550Y016097D03*
X033900Y016097D03*
X032750Y016203D03*
X032400Y016203D03*
X032400Y016597D03*
X032750Y016597D03*
X031500Y018103D03*
X031500Y018497D03*
X029500Y017397D03*
X029500Y017003D03*
X023647Y020000D03*
X023253Y020000D03*
X023253Y020400D03*
X023647Y020400D03*
X023647Y020800D03*
X023253Y020800D03*
X023253Y021200D03*
X023647Y021200D03*
X028053Y021900D03*
X028447Y021900D03*
X028753Y021900D03*
X029147Y021900D03*
X020247Y015700D03*
X019853Y015700D03*
X012900Y008747D03*
X012900Y008353D03*
X012900Y008047D03*
X012900Y007653D03*
X014050Y007597D03*
X014050Y007203D03*
X016300Y008103D03*
X016300Y008497D03*
D11*
X003024Y018788D03*
X002650Y018788D03*
X002276Y018788D03*
X002276Y019812D03*
X002650Y019812D03*
X003024Y019812D03*
X044876Y010262D03*
X045624Y010262D03*
X045624Y009238D03*
X045250Y009238D03*
X044876Y009238D03*
D12*
X006692Y016958D02*
X006692Y018242D01*
X006692Y016958D02*
X005408Y016958D01*
X005408Y018242D01*
X006692Y018242D01*
X006692Y017385D02*
X005408Y017385D01*
X005408Y017812D02*
X006692Y017812D01*
X006692Y018239D02*
X005408Y018239D01*
D13*
X004423Y018252D02*
X004423Y018326D01*
X004423Y018252D02*
X004133Y018252D01*
X004133Y018326D01*
X004423Y018326D01*
X004423Y018276D02*
X004133Y018276D01*
X004133Y018300D02*
X004423Y018300D01*
X004423Y018324D02*
X004133Y018324D01*
X004423Y018449D02*
X004423Y018523D01*
X004423Y018449D02*
X004133Y018449D01*
X004133Y018523D01*
X004423Y018523D01*
X004423Y018473D02*
X004133Y018473D01*
X004133Y018497D02*
X004423Y018497D01*
X004423Y018521D02*
X004133Y018521D01*
X004423Y018646D02*
X004423Y018720D01*
X004423Y018646D02*
X004133Y018646D01*
X004133Y018720D01*
X004423Y018720D01*
X004423Y018670D02*
X004133Y018670D01*
X004133Y018694D02*
X004423Y018694D01*
X004423Y018718D02*
X004133Y018718D01*
X004423Y018843D02*
X004423Y018917D01*
X004423Y018843D02*
X004133Y018843D01*
X004133Y018917D01*
X004423Y018917D01*
X004423Y018867D02*
X004133Y018867D01*
X004133Y018891D02*
X004423Y018891D01*
X004423Y018915D02*
X004133Y018915D01*
X004423Y019039D02*
X004423Y019113D01*
X004423Y019039D02*
X004133Y019039D01*
X004133Y019113D01*
X004423Y019113D01*
X004423Y019063D02*
X004133Y019063D01*
X004133Y019087D02*
X004423Y019087D01*
X004423Y019111D02*
X004133Y019111D01*
X004537Y019227D02*
X004611Y019227D01*
X004537Y019227D02*
X004537Y019517D01*
X004611Y019517D01*
X004611Y019227D01*
X004611Y019251D02*
X004537Y019251D01*
X004537Y019275D02*
X004611Y019275D01*
X004611Y019299D02*
X004537Y019299D01*
X004537Y019323D02*
X004611Y019323D01*
X004611Y019347D02*
X004537Y019347D01*
X004537Y019371D02*
X004611Y019371D01*
X004611Y019395D02*
X004537Y019395D01*
X004537Y019419D02*
X004611Y019419D01*
X004611Y019443D02*
X004537Y019443D01*
X004537Y019467D02*
X004611Y019467D01*
X004611Y019491D02*
X004537Y019491D01*
X004537Y019515D02*
X004611Y019515D01*
X004733Y019227D02*
X004807Y019227D01*
X004733Y019227D02*
X004733Y019517D01*
X004807Y019517D01*
X004807Y019227D01*
X004807Y019251D02*
X004733Y019251D01*
X004733Y019275D02*
X004807Y019275D01*
X004807Y019299D02*
X004733Y019299D01*
X004733Y019323D02*
X004807Y019323D01*
X004807Y019347D02*
X004733Y019347D01*
X004733Y019371D02*
X004807Y019371D01*
X004807Y019395D02*
X004733Y019395D01*
X004733Y019419D02*
X004807Y019419D01*
X004807Y019443D02*
X004733Y019443D01*
X004733Y019467D02*
X004807Y019467D01*
X004807Y019491D02*
X004733Y019491D01*
X004733Y019515D02*
X004807Y019515D01*
X004930Y019227D02*
X005004Y019227D01*
X004930Y019227D02*
X004930Y019517D01*
X005004Y019517D01*
X005004Y019227D01*
X005004Y019251D02*
X004930Y019251D01*
X004930Y019275D02*
X005004Y019275D01*
X005004Y019299D02*
X004930Y019299D01*
X004930Y019323D02*
X005004Y019323D01*
X005004Y019347D02*
X004930Y019347D01*
X004930Y019371D02*
X005004Y019371D01*
X005004Y019395D02*
X004930Y019395D01*
X004930Y019419D02*
X005004Y019419D01*
X005004Y019443D02*
X004930Y019443D01*
X004930Y019467D02*
X005004Y019467D01*
X005004Y019491D02*
X004930Y019491D01*
X004930Y019515D02*
X005004Y019515D01*
X005127Y019227D02*
X005201Y019227D01*
X005127Y019227D02*
X005127Y019517D01*
X005201Y019517D01*
X005201Y019227D01*
X005201Y019251D02*
X005127Y019251D01*
X005127Y019275D02*
X005201Y019275D01*
X005201Y019299D02*
X005127Y019299D01*
X005127Y019323D02*
X005201Y019323D01*
X005201Y019347D02*
X005127Y019347D01*
X005127Y019371D02*
X005201Y019371D01*
X005201Y019395D02*
X005127Y019395D01*
X005127Y019419D02*
X005201Y019419D01*
X005201Y019443D02*
X005127Y019443D01*
X005127Y019467D02*
X005201Y019467D01*
X005201Y019491D02*
X005127Y019491D01*
X005127Y019515D02*
X005201Y019515D01*
X005324Y019227D02*
X005398Y019227D01*
X005324Y019227D02*
X005324Y019517D01*
X005398Y019517D01*
X005398Y019227D01*
X005398Y019251D02*
X005324Y019251D01*
X005324Y019275D02*
X005398Y019275D01*
X005398Y019299D02*
X005324Y019299D01*
X005324Y019323D02*
X005398Y019323D01*
X005398Y019347D02*
X005324Y019347D01*
X005324Y019371D02*
X005398Y019371D01*
X005398Y019395D02*
X005324Y019395D01*
X005324Y019419D02*
X005398Y019419D01*
X005398Y019443D02*
X005324Y019443D01*
X005324Y019467D02*
X005398Y019467D01*
X005398Y019491D02*
X005324Y019491D01*
X005324Y019515D02*
X005398Y019515D01*
X005521Y019227D02*
X005595Y019227D01*
X005521Y019227D02*
X005521Y019517D01*
X005595Y019517D01*
X005595Y019227D01*
X005595Y019251D02*
X005521Y019251D01*
X005521Y019275D02*
X005595Y019275D01*
X005595Y019299D02*
X005521Y019299D01*
X005521Y019323D02*
X005595Y019323D01*
X005595Y019347D02*
X005521Y019347D01*
X005521Y019371D02*
X005595Y019371D01*
X005595Y019395D02*
X005521Y019395D01*
X005521Y019419D02*
X005595Y019419D01*
X005595Y019443D02*
X005521Y019443D01*
X005521Y019467D02*
X005595Y019467D01*
X005595Y019491D02*
X005521Y019491D01*
X005521Y019515D02*
X005595Y019515D01*
X005718Y019227D02*
X005792Y019227D01*
X005718Y019227D02*
X005718Y019517D01*
X005792Y019517D01*
X005792Y019227D01*
X005792Y019251D02*
X005718Y019251D01*
X005718Y019275D02*
X005792Y019275D01*
X005792Y019299D02*
X005718Y019299D01*
X005718Y019323D02*
X005792Y019323D01*
X005792Y019347D02*
X005718Y019347D01*
X005718Y019371D02*
X005792Y019371D01*
X005792Y019395D02*
X005718Y019395D01*
X005718Y019419D02*
X005792Y019419D01*
X005792Y019443D02*
X005718Y019443D01*
X005718Y019467D02*
X005792Y019467D01*
X005792Y019491D02*
X005718Y019491D01*
X005718Y019515D02*
X005792Y019515D01*
X005915Y019227D02*
X005989Y019227D01*
X005915Y019227D02*
X005915Y019517D01*
X005989Y019517D01*
X005989Y019227D01*
X005989Y019251D02*
X005915Y019251D01*
X005915Y019275D02*
X005989Y019275D01*
X005989Y019299D02*
X005915Y019299D01*
X005915Y019323D02*
X005989Y019323D01*
X005989Y019347D02*
X005915Y019347D01*
X005915Y019371D02*
X005989Y019371D01*
X005989Y019395D02*
X005915Y019395D01*
X005915Y019419D02*
X005989Y019419D01*
X005989Y019443D02*
X005915Y019443D01*
X005915Y019467D02*
X005989Y019467D01*
X005989Y019491D02*
X005915Y019491D01*
X005915Y019515D02*
X005989Y019515D01*
X006111Y019227D02*
X006185Y019227D01*
X006111Y019227D02*
X006111Y019517D01*
X006185Y019517D01*
X006185Y019227D01*
X006185Y019251D02*
X006111Y019251D01*
X006111Y019275D02*
X006185Y019275D01*
X006185Y019299D02*
X006111Y019299D01*
X006111Y019323D02*
X006185Y019323D01*
X006185Y019347D02*
X006111Y019347D01*
X006111Y019371D02*
X006185Y019371D01*
X006185Y019395D02*
X006111Y019395D01*
X006111Y019419D02*
X006185Y019419D01*
X006185Y019443D02*
X006111Y019443D01*
X006111Y019467D02*
X006185Y019467D01*
X006185Y019491D02*
X006111Y019491D01*
X006111Y019515D02*
X006185Y019515D01*
X006308Y019227D02*
X006382Y019227D01*
X006308Y019227D02*
X006308Y019517D01*
X006382Y019517D01*
X006382Y019227D01*
X006382Y019251D02*
X006308Y019251D01*
X006308Y019275D02*
X006382Y019275D01*
X006382Y019299D02*
X006308Y019299D01*
X006308Y019323D02*
X006382Y019323D01*
X006382Y019347D02*
X006308Y019347D01*
X006308Y019371D02*
X006382Y019371D01*
X006382Y019395D02*
X006308Y019395D01*
X006308Y019419D02*
X006382Y019419D01*
X006382Y019443D02*
X006308Y019443D01*
X006308Y019467D02*
X006382Y019467D01*
X006382Y019491D02*
X006308Y019491D01*
X006308Y019515D02*
X006382Y019515D01*
X006505Y019227D02*
X006579Y019227D01*
X006505Y019227D02*
X006505Y019517D01*
X006579Y019517D01*
X006579Y019227D01*
X006579Y019251D02*
X006505Y019251D01*
X006505Y019275D02*
X006579Y019275D01*
X006579Y019299D02*
X006505Y019299D01*
X006505Y019323D02*
X006579Y019323D01*
X006579Y019347D02*
X006505Y019347D01*
X006505Y019371D02*
X006579Y019371D01*
X006579Y019395D02*
X006505Y019395D01*
X006505Y019419D02*
X006579Y019419D01*
X006579Y019443D02*
X006505Y019443D01*
X006505Y019467D02*
X006579Y019467D01*
X006579Y019491D02*
X006505Y019491D01*
X006505Y019515D02*
X006579Y019515D01*
X006702Y019227D02*
X006776Y019227D01*
X006702Y019227D02*
X006702Y019517D01*
X006776Y019517D01*
X006776Y019227D01*
X006776Y019251D02*
X006702Y019251D01*
X006702Y019275D02*
X006776Y019275D01*
X006776Y019299D02*
X006702Y019299D01*
X006702Y019323D02*
X006776Y019323D01*
X006776Y019347D02*
X006702Y019347D01*
X006702Y019371D02*
X006776Y019371D01*
X006776Y019395D02*
X006702Y019395D01*
X006702Y019419D02*
X006776Y019419D01*
X006776Y019443D02*
X006702Y019443D01*
X006702Y019467D02*
X006776Y019467D01*
X006776Y019491D02*
X006702Y019491D01*
X006702Y019515D02*
X006776Y019515D01*
X006899Y019227D02*
X006973Y019227D01*
X006899Y019227D02*
X006899Y019517D01*
X006973Y019517D01*
X006973Y019227D01*
X006973Y019251D02*
X006899Y019251D01*
X006899Y019275D02*
X006973Y019275D01*
X006973Y019299D02*
X006899Y019299D01*
X006899Y019323D02*
X006973Y019323D01*
X006973Y019347D02*
X006899Y019347D01*
X006899Y019371D02*
X006973Y019371D01*
X006973Y019395D02*
X006899Y019395D01*
X006899Y019419D02*
X006973Y019419D01*
X006973Y019443D02*
X006899Y019443D01*
X006899Y019467D02*
X006973Y019467D01*
X006973Y019491D02*
X006899Y019491D01*
X006899Y019515D02*
X006973Y019515D01*
X007096Y019227D02*
X007170Y019227D01*
X007096Y019227D02*
X007096Y019517D01*
X007170Y019517D01*
X007170Y019227D01*
X007170Y019251D02*
X007096Y019251D01*
X007096Y019275D02*
X007170Y019275D01*
X007170Y019299D02*
X007096Y019299D01*
X007096Y019323D02*
X007170Y019323D01*
X007170Y019347D02*
X007096Y019347D01*
X007096Y019371D02*
X007170Y019371D01*
X007170Y019395D02*
X007096Y019395D01*
X007096Y019419D02*
X007170Y019419D01*
X007170Y019443D02*
X007096Y019443D01*
X007096Y019467D02*
X007170Y019467D01*
X007170Y019491D02*
X007096Y019491D01*
X007096Y019515D02*
X007170Y019515D01*
X007293Y019227D02*
X007367Y019227D01*
X007293Y019227D02*
X007293Y019517D01*
X007367Y019517D01*
X007367Y019227D01*
X007367Y019251D02*
X007293Y019251D01*
X007293Y019275D02*
X007367Y019275D01*
X007367Y019299D02*
X007293Y019299D01*
X007293Y019323D02*
X007367Y019323D01*
X007367Y019347D02*
X007293Y019347D01*
X007293Y019371D02*
X007367Y019371D01*
X007367Y019395D02*
X007293Y019395D01*
X007293Y019419D02*
X007367Y019419D01*
X007367Y019443D02*
X007293Y019443D01*
X007293Y019467D02*
X007367Y019467D01*
X007367Y019491D02*
X007293Y019491D01*
X007293Y019515D02*
X007367Y019515D01*
X007489Y019227D02*
X007563Y019227D01*
X007489Y019227D02*
X007489Y019517D01*
X007563Y019517D01*
X007563Y019227D01*
X007563Y019251D02*
X007489Y019251D01*
X007489Y019275D02*
X007563Y019275D01*
X007563Y019299D02*
X007489Y019299D01*
X007489Y019323D02*
X007563Y019323D01*
X007563Y019347D02*
X007489Y019347D01*
X007489Y019371D02*
X007563Y019371D01*
X007563Y019395D02*
X007489Y019395D01*
X007489Y019419D02*
X007563Y019419D01*
X007563Y019443D02*
X007489Y019443D01*
X007489Y019467D02*
X007563Y019467D01*
X007563Y019491D02*
X007489Y019491D01*
X007489Y019515D02*
X007563Y019515D01*
X007677Y019113D02*
X007677Y019039D01*
X007677Y019113D02*
X007967Y019113D01*
X007967Y019039D01*
X007677Y019039D01*
X007677Y019063D02*
X007967Y019063D01*
X007967Y019087D02*
X007677Y019087D01*
X007677Y019111D02*
X007967Y019111D01*
X007677Y018917D02*
X007677Y018843D01*
X007677Y018917D02*
X007967Y018917D01*
X007967Y018843D01*
X007677Y018843D01*
X007677Y018867D02*
X007967Y018867D01*
X007967Y018891D02*
X007677Y018891D01*
X007677Y018915D02*
X007967Y018915D01*
X007677Y018720D02*
X007677Y018646D01*
X007677Y018720D02*
X007967Y018720D01*
X007967Y018646D01*
X007677Y018646D01*
X007677Y018670D02*
X007967Y018670D01*
X007967Y018694D02*
X007677Y018694D01*
X007677Y018718D02*
X007967Y018718D01*
X007677Y018523D02*
X007677Y018449D01*
X007677Y018523D02*
X007967Y018523D01*
X007967Y018449D01*
X007677Y018449D01*
X007677Y018473D02*
X007967Y018473D01*
X007967Y018497D02*
X007677Y018497D01*
X007677Y018521D02*
X007967Y018521D01*
X007677Y018326D02*
X007677Y018252D01*
X007677Y018326D02*
X007967Y018326D01*
X007967Y018252D01*
X007677Y018252D01*
X007677Y018276D02*
X007967Y018276D01*
X007967Y018300D02*
X007677Y018300D01*
X007677Y018324D02*
X007967Y018324D01*
X007677Y018129D02*
X007677Y018055D01*
X007677Y018129D02*
X007967Y018129D01*
X007967Y018055D01*
X007677Y018055D01*
X007677Y018079D02*
X007967Y018079D01*
X007967Y018103D02*
X007677Y018103D01*
X007677Y018127D02*
X007967Y018127D01*
X007677Y017932D02*
X007677Y017858D01*
X007677Y017932D02*
X007967Y017932D01*
X007967Y017858D01*
X007677Y017858D01*
X007677Y017882D02*
X007967Y017882D01*
X007967Y017906D02*
X007677Y017906D01*
X007677Y017930D02*
X007967Y017930D01*
X007677Y017735D02*
X007677Y017661D01*
X007677Y017735D02*
X007967Y017735D01*
X007967Y017661D01*
X007677Y017661D01*
X007677Y017685D02*
X007967Y017685D01*
X007967Y017709D02*
X007677Y017709D01*
X007677Y017733D02*
X007967Y017733D01*
X007677Y017539D02*
X007677Y017465D01*
X007677Y017539D02*
X007967Y017539D01*
X007967Y017465D01*
X007677Y017465D01*
X007677Y017489D02*
X007967Y017489D01*
X007967Y017513D02*
X007677Y017513D01*
X007677Y017537D02*
X007967Y017537D01*
X007677Y017342D02*
X007677Y017268D01*
X007677Y017342D02*
X007967Y017342D01*
X007967Y017268D01*
X007677Y017268D01*
X007677Y017292D02*
X007967Y017292D01*
X007967Y017316D02*
X007677Y017316D01*
X007677Y017340D02*
X007967Y017340D01*
X007677Y017145D02*
X007677Y017071D01*
X007677Y017145D02*
X007967Y017145D01*
X007967Y017071D01*
X007677Y017071D01*
X007677Y017095D02*
X007967Y017095D01*
X007967Y017119D02*
X007677Y017119D01*
X007677Y017143D02*
X007967Y017143D01*
X007677Y016948D02*
X007677Y016874D01*
X007677Y016948D02*
X007967Y016948D01*
X007967Y016874D01*
X007677Y016874D01*
X007677Y016898D02*
X007967Y016898D01*
X007967Y016922D02*
X007677Y016922D01*
X007677Y016946D02*
X007967Y016946D01*
X007677Y016751D02*
X007677Y016677D01*
X007677Y016751D02*
X007967Y016751D01*
X007967Y016677D01*
X007677Y016677D01*
X007677Y016701D02*
X007967Y016701D01*
X007967Y016725D02*
X007677Y016725D01*
X007677Y016749D02*
X007967Y016749D01*
X007677Y016554D02*
X007677Y016480D01*
X007677Y016554D02*
X007967Y016554D01*
X007967Y016480D01*
X007677Y016480D01*
X007677Y016504D02*
X007967Y016504D01*
X007967Y016528D02*
X007677Y016528D01*
X007677Y016552D02*
X007967Y016552D01*
X007677Y016357D02*
X007677Y016283D01*
X007677Y016357D02*
X007967Y016357D01*
X007967Y016283D01*
X007677Y016283D01*
X007677Y016307D02*
X007967Y016307D01*
X007967Y016331D02*
X007677Y016331D01*
X007677Y016355D02*
X007967Y016355D01*
X007677Y016161D02*
X007677Y016087D01*
X007677Y016161D02*
X007967Y016161D01*
X007967Y016087D01*
X007677Y016087D01*
X007677Y016111D02*
X007967Y016111D01*
X007967Y016135D02*
X007677Y016135D01*
X007677Y016159D02*
X007967Y016159D01*
X007563Y015973D02*
X007489Y015973D01*
X007563Y015973D02*
X007563Y015683D01*
X007489Y015683D01*
X007489Y015973D01*
X007489Y015707D02*
X007563Y015707D01*
X007563Y015731D02*
X007489Y015731D01*
X007489Y015755D02*
X007563Y015755D01*
X007563Y015779D02*
X007489Y015779D01*
X007489Y015803D02*
X007563Y015803D01*
X007563Y015827D02*
X007489Y015827D01*
X007489Y015851D02*
X007563Y015851D01*
X007563Y015875D02*
X007489Y015875D01*
X007489Y015899D02*
X007563Y015899D01*
X007563Y015923D02*
X007489Y015923D01*
X007489Y015947D02*
X007563Y015947D01*
X007563Y015971D02*
X007489Y015971D01*
X007367Y015973D02*
X007293Y015973D01*
X007367Y015973D02*
X007367Y015683D01*
X007293Y015683D01*
X007293Y015973D01*
X007293Y015707D02*
X007367Y015707D01*
X007367Y015731D02*
X007293Y015731D01*
X007293Y015755D02*
X007367Y015755D01*
X007367Y015779D02*
X007293Y015779D01*
X007293Y015803D02*
X007367Y015803D01*
X007367Y015827D02*
X007293Y015827D01*
X007293Y015851D02*
X007367Y015851D01*
X007367Y015875D02*
X007293Y015875D01*
X007293Y015899D02*
X007367Y015899D01*
X007367Y015923D02*
X007293Y015923D01*
X007293Y015947D02*
X007367Y015947D01*
X007367Y015971D02*
X007293Y015971D01*
X007170Y015973D02*
X007096Y015973D01*
X007170Y015973D02*
X007170Y015683D01*
X007096Y015683D01*
X007096Y015973D01*
X007096Y015707D02*
X007170Y015707D01*
X007170Y015731D02*
X007096Y015731D01*
X007096Y015755D02*
X007170Y015755D01*
X007170Y015779D02*
X007096Y015779D01*
X007096Y015803D02*
X007170Y015803D01*
X007170Y015827D02*
X007096Y015827D01*
X007096Y015851D02*
X007170Y015851D01*
X007170Y015875D02*
X007096Y015875D01*
X007096Y015899D02*
X007170Y015899D01*
X007170Y015923D02*
X007096Y015923D01*
X007096Y015947D02*
X007170Y015947D01*
X007170Y015971D02*
X007096Y015971D01*
X006973Y015973D02*
X006899Y015973D01*
X006973Y015973D02*
X006973Y015683D01*
X006899Y015683D01*
X006899Y015973D01*
X006899Y015707D02*
X006973Y015707D01*
X006973Y015731D02*
X006899Y015731D01*
X006899Y015755D02*
X006973Y015755D01*
X006973Y015779D02*
X006899Y015779D01*
X006899Y015803D02*
X006973Y015803D01*
X006973Y015827D02*
X006899Y015827D01*
X006899Y015851D02*
X006973Y015851D01*
X006973Y015875D02*
X006899Y015875D01*
X006899Y015899D02*
X006973Y015899D01*
X006973Y015923D02*
X006899Y015923D01*
X006899Y015947D02*
X006973Y015947D01*
X006973Y015971D02*
X006899Y015971D01*
X006776Y015973D02*
X006702Y015973D01*
X006776Y015973D02*
X006776Y015683D01*
X006702Y015683D01*
X006702Y015973D01*
X006702Y015707D02*
X006776Y015707D01*
X006776Y015731D02*
X006702Y015731D01*
X006702Y015755D02*
X006776Y015755D01*
X006776Y015779D02*
X006702Y015779D01*
X006702Y015803D02*
X006776Y015803D01*
X006776Y015827D02*
X006702Y015827D01*
X006702Y015851D02*
X006776Y015851D01*
X006776Y015875D02*
X006702Y015875D01*
X006702Y015899D02*
X006776Y015899D01*
X006776Y015923D02*
X006702Y015923D01*
X006702Y015947D02*
X006776Y015947D01*
X006776Y015971D02*
X006702Y015971D01*
X006579Y015973D02*
X006505Y015973D01*
X006579Y015973D02*
X006579Y015683D01*
X006505Y015683D01*
X006505Y015973D01*
X006505Y015707D02*
X006579Y015707D01*
X006579Y015731D02*
X006505Y015731D01*
X006505Y015755D02*
X006579Y015755D01*
X006579Y015779D02*
X006505Y015779D01*
X006505Y015803D02*
X006579Y015803D01*
X006579Y015827D02*
X006505Y015827D01*
X006505Y015851D02*
X006579Y015851D01*
X006579Y015875D02*
X006505Y015875D01*
X006505Y015899D02*
X006579Y015899D01*
X006579Y015923D02*
X006505Y015923D01*
X006505Y015947D02*
X006579Y015947D01*
X006579Y015971D02*
X006505Y015971D01*
X006382Y015973D02*
X006308Y015973D01*
X006382Y015973D02*
X006382Y015683D01*
X006308Y015683D01*
X006308Y015973D01*
X006308Y015707D02*
X006382Y015707D01*
X006382Y015731D02*
X006308Y015731D01*
X006308Y015755D02*
X006382Y015755D01*
X006382Y015779D02*
X006308Y015779D01*
X006308Y015803D02*
X006382Y015803D01*
X006382Y015827D02*
X006308Y015827D01*
X006308Y015851D02*
X006382Y015851D01*
X006382Y015875D02*
X006308Y015875D01*
X006308Y015899D02*
X006382Y015899D01*
X006382Y015923D02*
X006308Y015923D01*
X006308Y015947D02*
X006382Y015947D01*
X006382Y015971D02*
X006308Y015971D01*
X006185Y015973D02*
X006111Y015973D01*
X006185Y015973D02*
X006185Y015683D01*
X006111Y015683D01*
X006111Y015973D01*
X006111Y015707D02*
X006185Y015707D01*
X006185Y015731D02*
X006111Y015731D01*
X006111Y015755D02*
X006185Y015755D01*
X006185Y015779D02*
X006111Y015779D01*
X006111Y015803D02*
X006185Y015803D01*
X006185Y015827D02*
X006111Y015827D01*
X006111Y015851D02*
X006185Y015851D01*
X006185Y015875D02*
X006111Y015875D01*
X006111Y015899D02*
X006185Y015899D01*
X006185Y015923D02*
X006111Y015923D01*
X006111Y015947D02*
X006185Y015947D01*
X006185Y015971D02*
X006111Y015971D01*
X005989Y015973D02*
X005915Y015973D01*
X005989Y015973D02*
X005989Y015683D01*
X005915Y015683D01*
X005915Y015973D01*
X005915Y015707D02*
X005989Y015707D01*
X005989Y015731D02*
X005915Y015731D01*
X005915Y015755D02*
X005989Y015755D01*
X005989Y015779D02*
X005915Y015779D01*
X005915Y015803D02*
X005989Y015803D01*
X005989Y015827D02*
X005915Y015827D01*
X005915Y015851D02*
X005989Y015851D01*
X005989Y015875D02*
X005915Y015875D01*
X005915Y015899D02*
X005989Y015899D01*
X005989Y015923D02*
X005915Y015923D01*
X005915Y015947D02*
X005989Y015947D01*
X005989Y015971D02*
X005915Y015971D01*
X005792Y015973D02*
X005718Y015973D01*
X005792Y015973D02*
X005792Y015683D01*
X005718Y015683D01*
X005718Y015973D01*
X005718Y015707D02*
X005792Y015707D01*
X005792Y015731D02*
X005718Y015731D01*
X005718Y015755D02*
X005792Y015755D01*
X005792Y015779D02*
X005718Y015779D01*
X005718Y015803D02*
X005792Y015803D01*
X005792Y015827D02*
X005718Y015827D01*
X005718Y015851D02*
X005792Y015851D01*
X005792Y015875D02*
X005718Y015875D01*
X005718Y015899D02*
X005792Y015899D01*
X005792Y015923D02*
X005718Y015923D01*
X005718Y015947D02*
X005792Y015947D01*
X005792Y015971D02*
X005718Y015971D01*
X005595Y015973D02*
X005521Y015973D01*
X005595Y015973D02*
X005595Y015683D01*
X005521Y015683D01*
X005521Y015973D01*
X005521Y015707D02*
X005595Y015707D01*
X005595Y015731D02*
X005521Y015731D01*
X005521Y015755D02*
X005595Y015755D01*
X005595Y015779D02*
X005521Y015779D01*
X005521Y015803D02*
X005595Y015803D01*
X005595Y015827D02*
X005521Y015827D01*
X005521Y015851D02*
X005595Y015851D01*
X005595Y015875D02*
X005521Y015875D01*
X005521Y015899D02*
X005595Y015899D01*
X005595Y015923D02*
X005521Y015923D01*
X005521Y015947D02*
X005595Y015947D01*
X005595Y015971D02*
X005521Y015971D01*
X005398Y015973D02*
X005324Y015973D01*
X005398Y015973D02*
X005398Y015683D01*
X005324Y015683D01*
X005324Y015973D01*
X005324Y015707D02*
X005398Y015707D01*
X005398Y015731D02*
X005324Y015731D01*
X005324Y015755D02*
X005398Y015755D01*
X005398Y015779D02*
X005324Y015779D01*
X005324Y015803D02*
X005398Y015803D01*
X005398Y015827D02*
X005324Y015827D01*
X005324Y015851D02*
X005398Y015851D01*
X005398Y015875D02*
X005324Y015875D01*
X005324Y015899D02*
X005398Y015899D01*
X005398Y015923D02*
X005324Y015923D01*
X005324Y015947D02*
X005398Y015947D01*
X005398Y015971D02*
X005324Y015971D01*
X005201Y015973D02*
X005127Y015973D01*
X005201Y015973D02*
X005201Y015683D01*
X005127Y015683D01*
X005127Y015973D01*
X005127Y015707D02*
X005201Y015707D01*
X005201Y015731D02*
X005127Y015731D01*
X005127Y015755D02*
X005201Y015755D01*
X005201Y015779D02*
X005127Y015779D01*
X005127Y015803D02*
X005201Y015803D01*
X005201Y015827D02*
X005127Y015827D01*
X005127Y015851D02*
X005201Y015851D01*
X005201Y015875D02*
X005127Y015875D01*
X005127Y015899D02*
X005201Y015899D01*
X005201Y015923D02*
X005127Y015923D01*
X005127Y015947D02*
X005201Y015947D01*
X005201Y015971D02*
X005127Y015971D01*
X005004Y015973D02*
X004930Y015973D01*
X005004Y015973D02*
X005004Y015683D01*
X004930Y015683D01*
X004930Y015973D01*
X004930Y015707D02*
X005004Y015707D01*
X005004Y015731D02*
X004930Y015731D01*
X004930Y015755D02*
X005004Y015755D01*
X005004Y015779D02*
X004930Y015779D01*
X004930Y015803D02*
X005004Y015803D01*
X005004Y015827D02*
X004930Y015827D01*
X004930Y015851D02*
X005004Y015851D01*
X005004Y015875D02*
X004930Y015875D01*
X004930Y015899D02*
X005004Y015899D01*
X005004Y015923D02*
X004930Y015923D01*
X004930Y015947D02*
X005004Y015947D01*
X005004Y015971D02*
X004930Y015971D01*
X004807Y015973D02*
X004733Y015973D01*
X004807Y015973D02*
X004807Y015683D01*
X004733Y015683D01*
X004733Y015973D01*
X004733Y015707D02*
X004807Y015707D01*
X004807Y015731D02*
X004733Y015731D01*
X004733Y015755D02*
X004807Y015755D01*
X004807Y015779D02*
X004733Y015779D01*
X004733Y015803D02*
X004807Y015803D01*
X004807Y015827D02*
X004733Y015827D01*
X004733Y015851D02*
X004807Y015851D01*
X004807Y015875D02*
X004733Y015875D01*
X004733Y015899D02*
X004807Y015899D01*
X004807Y015923D02*
X004733Y015923D01*
X004733Y015947D02*
X004807Y015947D01*
X004807Y015971D02*
X004733Y015971D01*
X004611Y015973D02*
X004537Y015973D01*
X004611Y015973D02*
X004611Y015683D01*
X004537Y015683D01*
X004537Y015973D01*
X004537Y015707D02*
X004611Y015707D01*
X004611Y015731D02*
X004537Y015731D01*
X004537Y015755D02*
X004611Y015755D01*
X004611Y015779D02*
X004537Y015779D01*
X004537Y015803D02*
X004611Y015803D01*
X004611Y015827D02*
X004537Y015827D01*
X004537Y015851D02*
X004611Y015851D01*
X004611Y015875D02*
X004537Y015875D01*
X004537Y015899D02*
X004611Y015899D01*
X004611Y015923D02*
X004537Y015923D01*
X004537Y015947D02*
X004611Y015947D01*
X004611Y015971D02*
X004537Y015971D01*
X004423Y016087D02*
X004423Y016161D01*
X004423Y016087D02*
X004133Y016087D01*
X004133Y016161D01*
X004423Y016161D01*
X004423Y016111D02*
X004133Y016111D01*
X004133Y016135D02*
X004423Y016135D01*
X004423Y016159D02*
X004133Y016159D01*
X004423Y016283D02*
X004423Y016357D01*
X004423Y016283D02*
X004133Y016283D01*
X004133Y016357D01*
X004423Y016357D01*
X004423Y016307D02*
X004133Y016307D01*
X004133Y016331D02*
X004423Y016331D01*
X004423Y016355D02*
X004133Y016355D01*
X004423Y016480D02*
X004423Y016554D01*
X004423Y016480D02*
X004133Y016480D01*
X004133Y016554D01*
X004423Y016554D01*
X004423Y016504D02*
X004133Y016504D01*
X004133Y016528D02*
X004423Y016528D01*
X004423Y016552D02*
X004133Y016552D01*
X004423Y016677D02*
X004423Y016751D01*
X004423Y016677D02*
X004133Y016677D01*
X004133Y016751D01*
X004423Y016751D01*
X004423Y016701D02*
X004133Y016701D01*
X004133Y016725D02*
X004423Y016725D01*
X004423Y016749D02*
X004133Y016749D01*
X004423Y016874D02*
X004423Y016948D01*
X004423Y016874D02*
X004133Y016874D01*
X004133Y016948D01*
X004423Y016948D01*
X004423Y016898D02*
X004133Y016898D01*
X004133Y016922D02*
X004423Y016922D01*
X004423Y016946D02*
X004133Y016946D01*
X004423Y017071D02*
X004423Y017145D01*
X004423Y017071D02*
X004133Y017071D01*
X004133Y017145D01*
X004423Y017145D01*
X004423Y017095D02*
X004133Y017095D01*
X004133Y017119D02*
X004423Y017119D01*
X004423Y017143D02*
X004133Y017143D01*
X004423Y017268D02*
X004423Y017342D01*
X004423Y017268D02*
X004133Y017268D01*
X004133Y017342D01*
X004423Y017342D01*
X004423Y017292D02*
X004133Y017292D01*
X004133Y017316D02*
X004423Y017316D01*
X004423Y017340D02*
X004133Y017340D01*
X004423Y017465D02*
X004423Y017539D01*
X004423Y017465D02*
X004133Y017465D01*
X004133Y017539D01*
X004423Y017539D01*
X004423Y017489D02*
X004133Y017489D01*
X004133Y017513D02*
X004423Y017513D01*
X004423Y017537D02*
X004133Y017537D01*
X004423Y017661D02*
X004423Y017735D01*
X004423Y017661D02*
X004133Y017661D01*
X004133Y017735D01*
X004423Y017735D01*
X004423Y017685D02*
X004133Y017685D01*
X004133Y017709D02*
X004423Y017709D01*
X004423Y017733D02*
X004133Y017733D01*
X004423Y017858D02*
X004423Y017932D01*
X004423Y017858D02*
X004133Y017858D01*
X004133Y017932D01*
X004423Y017932D01*
X004423Y017882D02*
X004133Y017882D01*
X004133Y017906D02*
X004423Y017906D01*
X004423Y017930D02*
X004133Y017930D01*
X004423Y018055D02*
X004423Y018129D01*
X004423Y018055D02*
X004133Y018055D01*
X004133Y018129D01*
X004423Y018129D01*
X004423Y018079D02*
X004133Y018079D01*
X004133Y018103D02*
X004423Y018103D01*
X004423Y018127D02*
X004133Y018127D01*
D14*
X001269Y002948D03*
X001269Y006452D03*
D15*
X003592Y006452D03*
X003592Y002948D03*
D16*
X003631Y004070D03*
X003631Y004385D03*
X003631Y004700D03*
X003631Y005015D03*
X003631Y005330D03*
D17*
X006739Y005550D03*
X006739Y005050D03*
X006739Y006050D03*
X006739Y006550D03*
X006739Y007050D03*
X006739Y007550D03*
X006739Y008050D03*
X006739Y008550D03*
X006739Y009450D03*
X006739Y009950D03*
X006739Y010450D03*
X006739Y010950D03*
X006739Y011450D03*
X006739Y011950D03*
X006739Y012450D03*
X006739Y012950D03*
X010361Y012950D03*
X010361Y012450D03*
X010361Y011950D03*
X010361Y011450D03*
X010361Y010950D03*
X010361Y010450D03*
X010361Y009950D03*
X010361Y009450D03*
X010361Y008550D03*
X010361Y008050D03*
X010361Y007550D03*
X010361Y007050D03*
X010361Y006550D03*
X010361Y006050D03*
X010361Y005550D03*
X010361Y005050D03*
D18*
X004945Y012600D03*
X004355Y012600D03*
X011255Y017000D03*
X011845Y017000D03*
X011845Y017800D03*
X011255Y017800D03*
X011255Y018600D03*
X011845Y018600D03*
X001745Y020800D03*
X001155Y020800D03*
X001155Y021300D03*
X001745Y021300D03*
D19*
X002150Y016000D03*
X002150Y012200D03*
D20*
X007990Y012100D03*
X009110Y012100D03*
X009110Y013000D03*
X007990Y013000D03*
X007990Y011100D03*
X009110Y011100D03*
X009110Y010100D03*
X007990Y010100D03*
X007990Y009100D03*
X009110Y009100D03*
X009110Y008100D03*
X007990Y008100D03*
X007990Y007100D03*
X009110Y007100D03*
X009110Y006100D03*
X007990Y006100D03*
X007990Y005000D03*
X009110Y005000D03*
D21*
X002818Y007800D03*
X001282Y007800D03*
D22*
X015257Y013700D03*
X015257Y014700D03*
X015257Y015700D03*
X018643Y015700D03*
X018643Y014700D03*
X018643Y013700D03*
D23*
X021638Y015226D03*
X022662Y015226D03*
X022662Y015600D03*
X022662Y015974D03*
X021638Y015974D03*
X018262Y017226D03*
X018262Y017600D03*
X018262Y017974D03*
X017238Y017974D03*
X017238Y017600D03*
X017238Y017226D03*
X022738Y009374D03*
X023762Y009374D03*
X023762Y009000D03*
X023762Y008626D03*
X022738Y008626D03*
D24*
X044650Y014809D03*
X044650Y015065D03*
X044650Y015320D03*
X044650Y015576D03*
X044650Y015832D03*
X044650Y016088D03*
X044650Y016344D03*
X044650Y016600D03*
X046953Y016600D03*
X046953Y016344D03*
X046953Y016088D03*
X046953Y015832D03*
X046953Y015576D03*
X046953Y015320D03*
X046953Y015065D03*
X046953Y014809D03*
D25*
X046876Y013500D03*
X046876Y013000D03*
X046876Y012500D03*
X046876Y012000D03*
X044750Y012000D03*
X044750Y012500D03*
X044750Y013000D03*
X044750Y013500D03*
D26*
X042850Y010500D03*
X042850Y009000D03*
D27*
X042402Y008100D03*
X043898Y008100D03*
D28*
X046850Y007870D03*
X046850Y009130D03*
X001650Y009170D03*
X001650Y010430D03*
D29*
X002930Y009500D03*
X002930Y009303D03*
X002930Y009106D03*
X002930Y008909D03*
X003757Y008909D03*
X003757Y009106D03*
X003757Y009303D03*
X003757Y009500D03*
D30*
X003344Y009205D03*
D31*
X002720Y010500D03*
X003980Y010500D03*
D32*
X004932Y010285D03*
X004932Y009085D03*
D33*
G36*
X026917Y011624D02*
X026472Y011179D01*
X026389Y011262D01*
X026834Y011707D01*
X026917Y011624D01*
G37*
G36*
X027056Y011485D02*
X026611Y011040D01*
X026528Y011123D01*
X026973Y011568D01*
X027056Y011485D01*
G37*
G36*
X027195Y011346D02*
X026750Y010901D01*
X026667Y010984D01*
X027112Y011429D01*
X027195Y011346D01*
G37*
G36*
X027334Y011207D02*
X026889Y010762D01*
X026806Y010845D01*
X027251Y011290D01*
X027334Y011207D01*
G37*
G36*
X027473Y011067D02*
X027028Y010622D01*
X026945Y010705D01*
X027390Y011150D01*
X027473Y011067D01*
G37*
G36*
X027613Y010928D02*
X027168Y010483D01*
X027085Y010566D01*
X027530Y011011D01*
X027613Y010928D01*
G37*
G36*
X027752Y010789D02*
X027307Y010344D01*
X027224Y010427D01*
X027669Y010872D01*
X027752Y010789D01*
G37*
G36*
X027891Y010650D02*
X027446Y010205D01*
X027363Y010288D01*
X027808Y010733D01*
X027891Y010650D01*
G37*
G36*
X028030Y010511D02*
X027585Y010066D01*
X027502Y010149D01*
X027947Y010594D01*
X028030Y010511D01*
G37*
G36*
X028169Y010371D02*
X027724Y009926D01*
X027641Y010009D01*
X028086Y010454D01*
X028169Y010371D01*
G37*
G36*
X028309Y010232D02*
X027864Y009787D01*
X027781Y009870D01*
X028226Y010315D01*
X028309Y010232D01*
G37*
G36*
X028448Y010093D02*
X028003Y009648D01*
X027920Y009731D01*
X028365Y010176D01*
X028448Y010093D01*
G37*
G36*
X028587Y009954D02*
X028142Y009509D01*
X028059Y009592D01*
X028504Y010037D01*
X028587Y009954D01*
G37*
G36*
X028726Y009815D02*
X028281Y009370D01*
X028198Y009453D01*
X028643Y009898D01*
X028726Y009815D01*
G37*
G36*
X028865Y009676D02*
X028420Y009231D01*
X028337Y009314D01*
X028782Y009759D01*
X028865Y009676D01*
G37*
G36*
X029004Y009536D02*
X028559Y009091D01*
X028476Y009174D01*
X028921Y009619D01*
X029004Y009536D01*
G37*
G36*
X029144Y009397D02*
X028699Y008952D01*
X028616Y009035D01*
X029061Y009480D01*
X029144Y009397D01*
G37*
G36*
X029283Y009258D02*
X028838Y008813D01*
X028755Y008896D01*
X029200Y009341D01*
X029283Y009258D01*
G37*
G36*
X029422Y009119D02*
X028977Y008674D01*
X028894Y008757D01*
X029339Y009202D01*
X029422Y009119D01*
G37*
G36*
X029561Y008980D02*
X029116Y008535D01*
X029033Y008618D01*
X029478Y009063D01*
X029561Y008980D01*
G37*
G36*
X029700Y008840D02*
X029255Y008395D01*
X029172Y008478D01*
X029617Y008923D01*
X029700Y008840D01*
G37*
G36*
X029840Y008701D02*
X029395Y008256D01*
X029312Y008339D01*
X029757Y008784D01*
X029840Y008701D01*
G37*
G36*
X029979Y008562D02*
X029534Y008117D01*
X029451Y008200D01*
X029896Y008645D01*
X029979Y008562D01*
G37*
G36*
X030118Y008423D02*
X029673Y007978D01*
X029590Y008061D01*
X030035Y008506D01*
X030118Y008423D01*
G37*
G36*
X030257Y008284D02*
X029812Y007839D01*
X029729Y007922D01*
X030174Y008367D01*
X030257Y008284D01*
G37*
G36*
X030926Y008367D02*
X031371Y007922D01*
X031288Y007839D01*
X030843Y008284D01*
X030926Y008367D01*
G37*
G36*
X031065Y008506D02*
X031510Y008061D01*
X031427Y007978D01*
X030982Y008423D01*
X031065Y008506D01*
G37*
G36*
X031204Y008645D02*
X031649Y008200D01*
X031566Y008117D01*
X031121Y008562D01*
X031204Y008645D01*
G37*
G36*
X031343Y008784D02*
X031788Y008339D01*
X031705Y008256D01*
X031260Y008701D01*
X031343Y008784D01*
G37*
G36*
X031483Y008923D02*
X031928Y008478D01*
X031845Y008395D01*
X031400Y008840D01*
X031483Y008923D01*
G37*
G36*
X031622Y009063D02*
X032067Y008618D01*
X031984Y008535D01*
X031539Y008980D01*
X031622Y009063D01*
G37*
G36*
X031761Y009202D02*
X032206Y008757D01*
X032123Y008674D01*
X031678Y009119D01*
X031761Y009202D01*
G37*
G36*
X031900Y009341D02*
X032345Y008896D01*
X032262Y008813D01*
X031817Y009258D01*
X031900Y009341D01*
G37*
G36*
X032039Y009480D02*
X032484Y009035D01*
X032401Y008952D01*
X031956Y009397D01*
X032039Y009480D01*
G37*
G36*
X032179Y009619D02*
X032624Y009174D01*
X032541Y009091D01*
X032096Y009536D01*
X032179Y009619D01*
G37*
G36*
X032318Y009759D02*
X032763Y009314D01*
X032680Y009231D01*
X032235Y009676D01*
X032318Y009759D01*
G37*
G36*
X032457Y009898D02*
X032902Y009453D01*
X032819Y009370D01*
X032374Y009815D01*
X032457Y009898D01*
G37*
G36*
X032596Y010037D02*
X033041Y009592D01*
X032958Y009509D01*
X032513Y009954D01*
X032596Y010037D01*
G37*
G36*
X032735Y010176D02*
X033180Y009731D01*
X033097Y009648D01*
X032652Y010093D01*
X032735Y010176D01*
G37*
G36*
X032874Y010315D02*
X033319Y009870D01*
X033236Y009787D01*
X032791Y010232D01*
X032874Y010315D01*
G37*
G36*
X033014Y010454D02*
X033459Y010009D01*
X033376Y009926D01*
X032931Y010371D01*
X033014Y010454D01*
G37*
G36*
X033153Y010594D02*
X033598Y010149D01*
X033515Y010066D01*
X033070Y010511D01*
X033153Y010594D01*
G37*
G36*
X033292Y010733D02*
X033737Y010288D01*
X033654Y010205D01*
X033209Y010650D01*
X033292Y010733D01*
G37*
G36*
X033431Y010872D02*
X033876Y010427D01*
X033793Y010344D01*
X033348Y010789D01*
X033431Y010872D01*
G37*
G36*
X033570Y011011D02*
X034015Y010566D01*
X033932Y010483D01*
X033487Y010928D01*
X033570Y011011D01*
G37*
G36*
X033710Y011150D02*
X034155Y010705D01*
X034072Y010622D01*
X033627Y011067D01*
X033710Y011150D01*
G37*
G36*
X033849Y011290D02*
X034294Y010845D01*
X034211Y010762D01*
X033766Y011207D01*
X033849Y011290D01*
G37*
G36*
X033988Y011429D02*
X034433Y010984D01*
X034350Y010901D01*
X033905Y011346D01*
X033988Y011429D01*
G37*
G36*
X034127Y011568D02*
X034572Y011123D01*
X034489Y011040D01*
X034044Y011485D01*
X034127Y011568D01*
G37*
G36*
X034266Y011707D02*
X034711Y011262D01*
X034628Y011179D01*
X034183Y011624D01*
X034266Y011707D01*
G37*
G36*
X034183Y012376D02*
X034628Y012821D01*
X034711Y012738D01*
X034266Y012293D01*
X034183Y012376D01*
G37*
G36*
X034044Y012515D02*
X034489Y012960D01*
X034572Y012877D01*
X034127Y012432D01*
X034044Y012515D01*
G37*
G36*
X033905Y012654D02*
X034350Y013099D01*
X034433Y013016D01*
X033988Y012571D01*
X033905Y012654D01*
G37*
G36*
X033766Y012793D02*
X034211Y013238D01*
X034294Y013155D01*
X033849Y012710D01*
X033766Y012793D01*
G37*
G36*
X033627Y012933D02*
X034072Y013378D01*
X034155Y013295D01*
X033710Y012850D01*
X033627Y012933D01*
G37*
G36*
X033487Y013072D02*
X033932Y013517D01*
X034015Y013434D01*
X033570Y012989D01*
X033487Y013072D01*
G37*
G36*
X033348Y013211D02*
X033793Y013656D01*
X033876Y013573D01*
X033431Y013128D01*
X033348Y013211D01*
G37*
G36*
X033209Y013350D02*
X033654Y013795D01*
X033737Y013712D01*
X033292Y013267D01*
X033209Y013350D01*
G37*
G36*
X033070Y013489D02*
X033515Y013934D01*
X033598Y013851D01*
X033153Y013406D01*
X033070Y013489D01*
G37*
G36*
X032931Y013629D02*
X033376Y014074D01*
X033459Y013991D01*
X033014Y013546D01*
X032931Y013629D01*
G37*
G36*
X032791Y013768D02*
X033236Y014213D01*
X033319Y014130D01*
X032874Y013685D01*
X032791Y013768D01*
G37*
G36*
X032652Y013907D02*
X033097Y014352D01*
X033180Y014269D01*
X032735Y013824D01*
X032652Y013907D01*
G37*
G36*
X032513Y014046D02*
X032958Y014491D01*
X033041Y014408D01*
X032596Y013963D01*
X032513Y014046D01*
G37*
G36*
X032374Y014185D02*
X032819Y014630D01*
X032902Y014547D01*
X032457Y014102D01*
X032374Y014185D01*
G37*
G36*
X032235Y014324D02*
X032680Y014769D01*
X032763Y014686D01*
X032318Y014241D01*
X032235Y014324D01*
G37*
G36*
X032096Y014464D02*
X032541Y014909D01*
X032624Y014826D01*
X032179Y014381D01*
X032096Y014464D01*
G37*
G36*
X031956Y014603D02*
X032401Y015048D01*
X032484Y014965D01*
X032039Y014520D01*
X031956Y014603D01*
G37*
G36*
X031817Y014742D02*
X032262Y015187D01*
X032345Y015104D01*
X031900Y014659D01*
X031817Y014742D01*
G37*
G36*
X031678Y014881D02*
X032123Y015326D01*
X032206Y015243D01*
X031761Y014798D01*
X031678Y014881D01*
G37*
G36*
X031539Y015020D02*
X031984Y015465D01*
X032067Y015382D01*
X031622Y014937D01*
X031539Y015020D01*
G37*
G36*
X031400Y015160D02*
X031845Y015605D01*
X031928Y015522D01*
X031483Y015077D01*
X031400Y015160D01*
G37*
G36*
X031260Y015299D02*
X031705Y015744D01*
X031788Y015661D01*
X031343Y015216D01*
X031260Y015299D01*
G37*
G36*
X031121Y015438D02*
X031566Y015883D01*
X031649Y015800D01*
X031204Y015355D01*
X031121Y015438D01*
G37*
G36*
X030982Y015577D02*
X031427Y016022D01*
X031510Y015939D01*
X031065Y015494D01*
X030982Y015577D01*
G37*
G36*
X030843Y015716D02*
X031288Y016161D01*
X031371Y016078D01*
X030926Y015633D01*
X030843Y015716D01*
G37*
G36*
X030174Y015633D02*
X029729Y016078D01*
X029812Y016161D01*
X030257Y015716D01*
X030174Y015633D01*
G37*
G36*
X030035Y015494D02*
X029590Y015939D01*
X029673Y016022D01*
X030118Y015577D01*
X030035Y015494D01*
G37*
G36*
X029896Y015355D02*
X029451Y015800D01*
X029534Y015883D01*
X029979Y015438D01*
X029896Y015355D01*
G37*
G36*
X029757Y015216D02*
X029312Y015661D01*
X029395Y015744D01*
X029840Y015299D01*
X029757Y015216D01*
G37*
G36*
X029617Y015077D02*
X029172Y015522D01*
X029255Y015605D01*
X029700Y015160D01*
X029617Y015077D01*
G37*
G36*
X029478Y014937D02*
X029033Y015382D01*
X029116Y015465D01*
X029561Y015020D01*
X029478Y014937D01*
G37*
G36*
X029339Y014798D02*
X028894Y015243D01*
X028977Y015326D01*
X029422Y014881D01*
X029339Y014798D01*
G37*
G36*
X029200Y014659D02*
X028755Y015104D01*
X028838Y015187D01*
X029283Y014742D01*
X029200Y014659D01*
G37*
G36*
X029061Y014520D02*
X028616Y014965D01*
X028699Y015048D01*
X029144Y014603D01*
X029061Y014520D01*
G37*
G36*
X028921Y014381D02*
X028476Y014826D01*
X028559Y014909D01*
X029004Y014464D01*
X028921Y014381D01*
G37*
G36*
X028782Y014241D02*
X028337Y014686D01*
X028420Y014769D01*
X028865Y014324D01*
X028782Y014241D01*
G37*
G36*
X028643Y014102D02*
X028198Y014547D01*
X028281Y014630D01*
X028726Y014185D01*
X028643Y014102D01*
G37*
G36*
X028504Y013963D02*
X028059Y014408D01*
X028142Y014491D01*
X028587Y014046D01*
X028504Y013963D01*
G37*
G36*
X028365Y013824D02*
X027920Y014269D01*
X028003Y014352D01*
X028448Y013907D01*
X028365Y013824D01*
G37*
G36*
X028226Y013685D02*
X027781Y014130D01*
X027864Y014213D01*
X028309Y013768D01*
X028226Y013685D01*
G37*
G36*
X028086Y013546D02*
X027641Y013991D01*
X027724Y014074D01*
X028169Y013629D01*
X028086Y013546D01*
G37*
G36*
X027947Y013406D02*
X027502Y013851D01*
X027585Y013934D01*
X028030Y013489D01*
X027947Y013406D01*
G37*
G36*
X027808Y013267D02*
X027363Y013712D01*
X027446Y013795D01*
X027891Y013350D01*
X027808Y013267D01*
G37*
G36*
X027669Y013128D02*
X027224Y013573D01*
X027307Y013656D01*
X027752Y013211D01*
X027669Y013128D01*
G37*
G36*
X027530Y012989D02*
X027085Y013434D01*
X027168Y013517D01*
X027613Y013072D01*
X027530Y012989D01*
G37*
G36*
X027390Y012850D02*
X026945Y013295D01*
X027028Y013378D01*
X027473Y012933D01*
X027390Y012850D01*
G37*
G36*
X027251Y012710D02*
X026806Y013155D01*
X026889Y013238D01*
X027334Y012793D01*
X027251Y012710D01*
G37*
G36*
X027112Y012571D02*
X026667Y013016D01*
X026750Y013099D01*
X027195Y012654D01*
X027112Y012571D01*
G37*
G36*
X026973Y012432D02*
X026528Y012877D01*
X026611Y012960D01*
X027056Y012515D01*
X026973Y012432D01*
G37*
G36*
X026834Y012293D02*
X026389Y012738D01*
X026472Y012821D01*
X026917Y012376D01*
X026834Y012293D01*
G37*
D34*
G36*
X030550Y009773D02*
X028323Y012000D01*
X030550Y014227D01*
X032777Y012000D01*
X030550Y009773D01*
G37*
D35*
G36*
X027273Y008089D02*
X027439Y008255D01*
X027605Y008089D01*
X027439Y007923D01*
X027273Y008089D01*
G37*
G36*
X027023Y008339D02*
X027189Y008505D01*
X027355Y008339D01*
X027189Y008173D01*
X027023Y008339D01*
G37*
G36*
X026773Y008589D02*
X026939Y008755D01*
X027105Y008589D01*
X026939Y008423D01*
X026773Y008589D01*
G37*
G36*
X026523Y008839D02*
X026689Y009005D01*
X026855Y008839D01*
X026689Y008673D01*
X026523Y008839D01*
G37*
G36*
X026245Y008561D02*
X026411Y008727D01*
X026577Y008561D01*
X026411Y008395D01*
X026245Y008561D01*
G37*
G36*
X026495Y008311D02*
X026661Y008477D01*
X026827Y008311D01*
X026661Y008145D01*
X026495Y008311D01*
G37*
G36*
X026745Y008061D02*
X026911Y008227D01*
X027077Y008061D01*
X026911Y007895D01*
X026745Y008061D01*
G37*
G36*
X026995Y007811D02*
X027161Y007977D01*
X027327Y007811D01*
X027161Y007645D01*
X026995Y007811D01*
G37*
G36*
X028089Y015377D02*
X028255Y015211D01*
X028089Y015045D01*
X027923Y015211D01*
X028089Y015377D01*
G37*
G36*
X027811Y015655D02*
X027977Y015489D01*
X027811Y015323D01*
X027645Y015489D01*
X027811Y015655D01*
G37*
D36*
X030365Y017500D03*
X030365Y018000D03*
X030365Y018500D03*
X031035Y018500D03*
X031035Y018000D03*
X031035Y017500D03*
X014285Y009400D03*
X013615Y009400D03*
X013515Y008000D03*
X014185Y008000D03*
D37*
X014044Y008405D03*
X014044Y008602D03*
X014044Y008798D03*
X014044Y008995D03*
X013256Y008995D03*
X013256Y008798D03*
X013256Y008602D03*
X013256Y008405D03*
D38*
X013650Y008700D03*
D39*
X013550Y007435D03*
X013550Y006765D03*
D40*
X020176Y011567D03*
X020924Y011567D03*
X020550Y012433D03*
D41*
X015350Y009091D03*
X015350Y007909D03*
M02*
