%
M48
M72
T01C0.0120
T02C0.0150
T03C0.0320
T04C0.0354
T05C0.0360
T06C0.0400
T07C0.0512
T08C0.0590
T09C0.1250
%
T01
X6650Y3500
X7250Y3500
X7850Y3500
X7850Y4000
X7250Y4000
X6650Y4000
X5750Y3900
X5150Y3900
X4550Y3900
X5450Y4650
X5450Y5100
X6650Y4600
X7250Y4600
X8450Y4000
X10250Y4300
X11050Y5000
X11250Y5500
X7550Y6100
X7600Y6950
X7550Y8100
X6750Y8900
X6150Y9400
X4450Y8600
X4050Y8400
X3550Y8400
X3550Y7800
X5250Y7400
X6150Y8100
X4050Y9700
X3350Y9800
X2850Y9800
X2350Y9800
X1850Y9800
X1250Y9800
X1150Y10500
X2350Y10500
X3650Y11300
X4050Y11300
X4450Y11300
X4450Y10900
X4450Y10500
X4950Y10900
X6150Y11000
X6150Y10500
X6150Y11500
X5250Y11500
X6150Y12000
X6150Y12500
X6150Y13000
X6250Y13400
X6650Y13400
X5250Y13400
X4850Y13400
X3550Y12900
X4050Y14700
X3550Y15100
X4350Y15400
X5650Y15200
X6050Y15200
X6739Y15400
X7450Y15400
X7850Y15400
X8250Y16500
X7450Y16700
X6650Y17000
X6050Y17000
X5450Y17000
X5450Y17600
X6050Y17600
X6650Y17600
X6650Y18200
X6050Y18200
X5450Y18200
X3850Y18900
X3050Y19400
X2650Y19400
X1750Y19100
X2650Y18300
X1750Y18000
X3750Y17600
X3650Y16600
X3650Y16200
X7950Y14200
X8750Y14400
X9650Y14000
X9650Y13200
X10350Y13200
X11050Y12500
X13250Y13700
X13250Y14700
X14350Y16200
X14350Y17100
X15250Y17600
X16250Y17600
X14350Y18000
X12150Y17100
X8650Y16900
X8550Y18900
X6550Y19800
X6250Y20100
X5750Y19800
X4250Y20100
X4250Y21100
X6850Y21100
X8150Y20300
X1750Y20100
X9650Y14800
X10350Y14800
X7950Y13600
X11050Y10000
X11050Y9400
X11050Y8500
X11050Y8000
X5250Y5800
X7850Y2900
X10350Y3000
X10350Y2600
X10850Y2600
X10850Y3000
X11350Y3000
X11350Y2600
X20550Y13700
X20550Y14700
X20550Y15700
X18850Y17600
X23950Y20400
X23950Y20800
X42850Y16400
X45550Y17800
X46550Y17800
X47450Y17200
X47850Y16700
X48450Y16400
X49550Y16400
X49250Y17500
X49250Y18500
X48150Y19000
X49250Y19300
X51450Y19800
X47650Y14700
X48350Y14300
X49650Y13700
X49250Y12500
X49350Y11500
X49550Y10300
X46853Y10300
X46250Y10500
X46250Y10000
X46250Y9500
X44350Y9700
X44350Y9200
X42850Y9700
X42250Y9700
X41450Y9900
X41450Y9400
X41450Y8900
X41450Y8400
X41450Y7900
X41850Y7500
X46250Y5900
X47650Y5100
X41450Y10400
X41450Y10900
X42350Y11000
X42850Y11000
X43350Y11000
X43350Y12500
X42850Y13500
X42850Y14200
X42850Y14700
X45450Y13000
X46850Y11500
X46250Y11100
T02
X45450Y12500
X41450Y11600
X39050Y10700
X39150Y10000
X39150Y9300
X39150Y8600
X39150Y7900
X38850Y6500
X39150Y6200
X38350Y6600
X40850Y6400
X42650Y6300
X47550Y7900
X48050Y7900
X41550Y3500
X40450Y2100
X36850Y2200
X34150Y3200
X33350Y4000
X33950Y4100
X32050Y3700
X31450Y3900
X30950Y3900
X32750Y2700
X26350Y5300
X25750Y5700
X24450Y5200
X24000Y5500
X23550Y5500
X24150Y5900
X25450Y4600
X23250Y3200
X21550Y4600
X20550Y4600
X19550Y4600
X17550Y4600
X16550Y4600
X15450Y5300
X14450Y5700
X14450Y6100
X14050Y6100
X13650Y6100
X13650Y5700
X14050Y5700
X13250Y5700
X13250Y6100
X12050Y7100
X11350Y6600
X12950Y7300
X14550Y7700
X15750Y7200
X17350Y7700
X17550Y7000
X17750Y6600
X18550Y6300
X19750Y6100
X18750Y7100
X22250Y8600
X22600Y7700
X23850Y8200
X24650Y9400
X25850Y9200
X25850Y9800
X27200Y9350
X27950Y8750
X28650Y8600
X27650Y8300
X27950Y7700
X26750Y7700
X26350Y8200
X28950Y10000
X28850Y10700
X28050Y10900
X28550Y11100
X30150Y11600
X30950Y11600
X30550Y11200
X32250Y10300
X33450Y11400
X34950Y10600
X35150Y9900
X36250Y9750
X36250Y10100
X36250Y10450
X37650Y10400
X38250Y10800
X36950Y11100
X36350Y11100
X36150Y12100
X36350Y13000
X35950Y13500
X35450Y13100
X34800Y13550
X34150Y14350
X35350Y14700
X35850Y14400
X36250Y14200
X36650Y14000
X38150Y13800
X38750Y13300
X40050Y13800
X40250Y13400
X40650Y15000
X39550Y15200
X39850Y15800
X39550Y16300
X40450Y16800
X40850Y17100
X39650Y17600
X39350Y17300
X38550Y17800
X38150Y17500
X36950Y17900
X36550Y18000
X35100Y18300
X33150Y18600
X32550Y18500
X32750Y18100
X31850Y18900
X31450Y18900
X31050Y18900
X30350Y18900
X29900Y18850
X27850Y17900
X27650Y18300
X27050Y18300
X26350Y18500
X27050Y18850
X26250Y18900
X25850Y19000
X25550Y19300
X23750Y19700
X20950Y18500
X21550Y18100
X22550Y17900
X20900Y17850
X19950Y16600
X19200Y16550
X18900Y16200
X17550Y16600
X14850Y16900
X12550Y15700
X11650Y13500
X13350Y11000
X12450Y10400
X12650Y9800
X13150Y9800
X13550Y9800
X13150Y9400
X12650Y9400
X14250Y9800
X14650Y9800
X14650Y10200
X14250Y10200
X15650Y9800
X16050Y10300
X16650Y10800
X17150Y11450
X17750Y11900
X19350Y11500
X19350Y12500
X19050Y12800
X20550Y12000
X22250Y12200
X22250Y11400
X20050Y10700
X18050Y9900
X17050Y9500
X17450Y10600
X15050Y11100
X21050Y13200
X22950Y13300
X23350Y13500
X23750Y13700
X24150Y13900
X24450Y14300
X24050Y14600
X22650Y14800
X21550Y14800
X20050Y15100
X22650Y16350
X23450Y16700
X23750Y16300
X23550Y15900
X25350Y16100
X26050Y16100
X26500Y16100
X26950Y16100
X27250Y16500
X27450Y16900
X27950Y16800
X28650Y16900
X28650Y16400
X29450Y16500
X30350Y16600
X30350Y17100
X30950Y17000
X30950Y16600
X32550Y16900
X33200Y16800
X33650Y16800
X33750Y16400
X32600Y15700
X33150Y15150
X34250Y15500
X35650Y15300
X36050Y15900
X37250Y16300
X41350Y16300
X42150Y15400
X45350Y16300
X45350Y17000
X44550Y17200
X43550Y17400
X42250Y18200
X41550Y17900
X36650Y20300
X35850Y20050
X35450Y20300
X34500Y19750
X33650Y19500
X33350Y19200
X32650Y19200
X29950Y20200
X28950Y20150
X28550Y20000
X28250Y19750
X28350Y17800
X28650Y17500
X29450Y17700
X27550Y15700
X25750Y15800
X25350Y14900
X25350Y14300
X27450Y14400
X28850Y13700
X28550Y13400
X28450Y12800
X29750Y12000
X30150Y12400
X30550Y12000
X30950Y12400
X31350Y12000
X30550Y12800
X31950Y13700
X32150Y13300
X32850Y13300
X32050Y14100
X31350Y14850
X29250Y14100
X25950Y12100
X24950Y12000
X25250Y11400
X25650Y11400
X25850Y10800
X22150Y9500
X30150Y8900
X32200Y7850
X30950Y7300
X31650Y6700
X32150Y6800
X32350Y6400
X32750Y6200
X33800Y7200
X34400Y7200
X34850Y7500
X35850Y7300
X34200Y8400
X34250Y9000
X35750Y8600
X36250Y9400
X36950Y9300
X33750Y12300
X37150Y20700
X36950Y21500
X35050Y21100
X29450Y21900
X23650Y21500
X14550Y4600
X15350Y1900
T03
X38550Y7850
X38550Y9750
T04
X2450Y5566
X2450Y3834
T05
X8550Y3000
X9550Y3000
X35050Y3000
X36050Y3000
X36050Y4000
X35050Y4000
X9550Y21000
X8550Y21000
T06
X13050Y21000
X14050Y21000
X15050Y21000
X16050Y21000
X17050Y21000
X18050Y21000
X19050Y21000
X20050Y21000
X21050Y21000
X22050Y21000
X22050Y20000
X21050Y20000
X20050Y20000
X19050Y20000
X18050Y20000
X17050Y20000
X16050Y20000
X15050Y20000
X14050Y20000
X13050Y20000
X25160Y21590
X26940Y21590
X38050Y21000
X39050Y21000
X40050Y21000
X41050Y21000
X42050Y21000
X43050Y21000
X44050Y21000
X45050Y21000
X46050Y21000
X47050Y21000
X47050Y20000
X46050Y20000
X45050Y20000
X44050Y20000
X43050Y20000
X42050Y20000
X41050Y20000
X40050Y20000
X39050Y20000
X38050Y20000
X49050Y21000
X50050Y21000
X51050Y21000
X51050Y19000
X51050Y18000
X51050Y17000
X51050Y16000
X51050Y15000
X51050Y13000
X51050Y12000
X51050Y11000
X51050Y10000
X51050Y9000
X51050Y5000
X51050Y4000
X51050Y3000
X47050Y3000
X46050Y3000
X45050Y3000
X44050Y3000
X43050Y3000
X42050Y3000
X41050Y3000
X40050Y3000
X39050Y3000
X38050Y3000
X38050Y4000
X39050Y4000
X40050Y4000
X41050Y4000
X42050Y4000
X43050Y4000
X44050Y4000
X45050Y4000
X46050Y4000
X47050Y4000
X22050Y4000
X21050Y4000
X20050Y4000
X19050Y4000
X18050Y4000
X17050Y4000
X16050Y4000
X15050Y4000
X14050Y4000
X13050Y4000
X13050Y3000
X14050Y3000
X15050Y3000
X16050Y3000
X17050Y3000
X18050Y3000
X19050Y3000
X20050Y3000
X21050Y3000
X22050Y3000
T07
X48050Y3000
X49050Y3000
T08
X27430Y20610
X24670Y20610
T09
X1550Y1500
X1550Y22500
M30
