G75*
%MOIN*%
%OFA0B0*%
%FSLAX24Y24*%
%IPPOS*%
%LPD*%
%AMOC8*
5,1,8,0,0,1.08239X$1,22.5*
%
%ADD10C,0.1330*%
%ADD11C,0.0050*%
%ADD12C,0.0434*%
%ADD13R,0.0740X0.0740*%
%ADD14C,0.0780*%
%ADD15C,0.0600*%
%ADD16R,0.0680X0.0680*%
%ADD17C,0.0680*%
%ADD18C,0.0010*%
%ADD19R,0.0820X0.0820*%
%ADD20C,0.0820*%
%ADD21OC8,0.0680*%
%ADD22C,0.0965*%
%ADD23C,0.0848*%
D10*
X001550Y001500D03*
X001550Y022500D03*
D11*
X002960Y022883D02*
X003018Y022825D01*
X003135Y022825D01*
X003193Y022883D01*
X003135Y023000D02*
X003018Y023000D01*
X002960Y022942D01*
X002960Y022883D01*
X003135Y023000D02*
X003193Y023059D01*
X003193Y023117D01*
X003135Y023175D01*
X003018Y023175D01*
X002960Y023117D01*
X003328Y023117D02*
X003562Y022883D01*
X003562Y022825D01*
X003696Y023117D02*
X003930Y022883D01*
X003930Y022825D01*
X004065Y022883D02*
X004123Y022825D01*
X004240Y022825D01*
X004298Y022883D01*
X004433Y022883D02*
X004491Y022825D01*
X004608Y022825D01*
X004667Y022883D01*
X004667Y022942D01*
X004608Y023000D01*
X004491Y023000D01*
X004433Y022942D01*
X004433Y022883D01*
X004491Y023000D02*
X004433Y023059D01*
X004433Y023117D01*
X004491Y023175D01*
X004608Y023175D01*
X004667Y023117D01*
X004667Y023059D01*
X004608Y023000D01*
X004801Y023059D02*
X005035Y022825D01*
X004801Y022825D01*
X004801Y023059D02*
X004801Y023117D01*
X004860Y023175D01*
X004977Y023175D01*
X005035Y023117D01*
X005170Y023175D02*
X005403Y023175D01*
X005403Y022825D01*
X005403Y023000D02*
X005286Y023000D01*
X005538Y023000D02*
X005772Y023000D01*
X005906Y022825D02*
X006140Y022825D01*
X006140Y023175D01*
X006275Y023175D02*
X006508Y022825D01*
X006643Y022825D02*
X006643Y023175D01*
X006508Y023175D02*
X006275Y022825D01*
X006643Y023000D02*
X006876Y023000D01*
X006876Y022825D02*
X006876Y023175D01*
X007011Y023117D02*
X007070Y023175D01*
X007186Y023175D01*
X007245Y023117D01*
X007245Y022883D01*
X007186Y022825D01*
X007070Y022825D01*
X007011Y022883D01*
X007380Y022825D02*
X007380Y023175D01*
X007613Y023175D02*
X007380Y022825D01*
X007613Y022825D02*
X007613Y023175D01*
X007748Y023175D02*
X007748Y022883D01*
X007806Y022825D01*
X007923Y022825D01*
X007981Y022883D01*
X007981Y023175D01*
X008116Y023059D02*
X008116Y022825D01*
X008116Y023000D02*
X008350Y023000D01*
X008350Y023059D02*
X008233Y023175D01*
X008116Y023059D01*
X008350Y023059D02*
X008350Y022825D01*
X008485Y022825D02*
X008718Y022825D01*
X008718Y023175D01*
X004298Y023117D02*
X004240Y023175D01*
X004123Y023175D01*
X004065Y023117D01*
X004065Y023059D01*
X004123Y023000D01*
X004065Y022942D01*
X004065Y022883D01*
X004123Y023000D02*
X004181Y023000D01*
X003930Y023175D02*
X003696Y023175D01*
X003696Y023117D01*
X003562Y023175D02*
X003328Y023175D01*
X003328Y023117D01*
D12*
X002450Y005566D03*
X002450Y003834D03*
D13*
X008550Y003000D03*
X036050Y003000D03*
X036050Y004000D03*
X008550Y021000D03*
D14*
X009550Y021000D03*
X035050Y004000D03*
X035050Y003000D03*
X009550Y003000D03*
D15*
X038550Y007850D03*
X038550Y009750D03*
D16*
X051050Y013000D03*
X051050Y019000D03*
X051050Y005000D03*
D17*
X051050Y004000D03*
X051050Y003000D03*
X051050Y009000D03*
X051050Y010000D03*
X051050Y011000D03*
X051050Y012000D03*
X051050Y015000D03*
X051050Y016000D03*
X051050Y017000D03*
X051050Y018000D03*
D18*
X048879Y010190D02*
X048897Y010184D01*
X048919Y010174D01*
X048936Y010161D01*
X048952Y010145D01*
X048971Y010126D01*
X048861Y010126D01*
X048861Y010118D02*
X048979Y010118D01*
X048983Y010113D02*
X048992Y010104D01*
X049003Y010094D01*
X049018Y010085D01*
X049041Y010075D01*
X049062Y010066D01*
X049082Y010057D01*
X049096Y010049D01*
X049114Y010034D01*
X049127Y010017D01*
X049131Y010010D01*
X049134Y009994D01*
X049131Y009973D01*
X049124Y009966D01*
X049118Y009959D01*
X049105Y009947D01*
X049082Y009925D01*
X049080Y009919D01*
X049076Y009899D01*
X049079Y009880D01*
X048537Y009880D01*
X048537Y009888D02*
X049078Y009888D01*
X049079Y009880D02*
X049089Y009866D01*
X049101Y009854D01*
X049140Y009832D01*
X049166Y009819D01*
X049188Y009810D01*
X049210Y009801D01*
X049236Y009787D01*
X049261Y009775D01*
X049289Y009756D01*
X049319Y009730D01*
X049338Y009708D01*
X049355Y009685D01*
X049364Y009668D01*
X049371Y009653D01*
X049374Y009637D01*
X049376Y009609D01*
X049374Y009590D01*
X049371Y009576D01*
X049368Y009567D01*
X049363Y009560D01*
X049358Y009559D01*
X049343Y009564D01*
X049321Y009570D01*
X049300Y009574D01*
X049282Y009576D01*
X049267Y009574D01*
X049247Y009570D01*
X049232Y009564D01*
X049220Y009558D01*
X049203Y009547D01*
X049188Y009535D01*
X049172Y009522D01*
X049159Y009508D01*
X049144Y009490D01*
X049130Y009471D01*
X049121Y009454D01*
X049112Y009439D01*
X049105Y009426D01*
X049093Y009403D01*
X049082Y009377D01*
X049075Y009362D01*
X049069Y009345D01*
X049065Y009336D01*
X048888Y009336D01*
X048880Y009346D01*
X048868Y009352D01*
X048851Y009361D01*
X048829Y009367D01*
X048789Y009371D01*
X048753Y009369D01*
X048731Y009366D01*
X048717Y009367D01*
X048713Y009374D01*
X048710Y009386D01*
X048707Y009405D01*
X048705Y009426D01*
X048701Y009463D01*
X049126Y009463D01*
X049121Y009455D02*
X048702Y009455D01*
X048701Y009463D02*
X048700Y009497D01*
X048700Y009537D01*
X048713Y009540D01*
X048744Y009546D01*
X048771Y009553D01*
X048788Y009557D01*
X048801Y009559D01*
X048801Y009489D01*
X048811Y009492D01*
X048897Y009512D01*
X048897Y009581D01*
X049021Y009608D01*
X049047Y009609D01*
X049051Y009605D01*
X049053Y009599D01*
X049053Y009572D01*
X049051Y009554D01*
X049121Y009572D01*
X049134Y009579D01*
X049139Y009598D01*
X049145Y009620D01*
X049151Y009652D01*
X049155Y009682D01*
X049152Y009714D01*
X049149Y009724D01*
X049140Y009742D01*
X049126Y009755D01*
X049113Y009765D01*
X049098Y009771D01*
X049076Y009774D01*
X049046Y009774D01*
X049030Y009771D01*
X048952Y009755D01*
X048909Y009745D01*
X048897Y009744D01*
X048896Y009812D01*
X048801Y009791D01*
X048801Y009721D01*
X048687Y009698D01*
X048685Y009719D01*
X048679Y009736D01*
X048672Y009748D01*
X048538Y009749D01*
X048537Y009964D01*
X048538Y009963D01*
X048647Y009964D01*
X048754Y009963D01*
X048861Y009963D01*
X048861Y010153D01*
X048860Y010190D01*
X048879Y010190D01*
X048891Y010186D02*
X048860Y010186D01*
X048860Y010177D02*
X048913Y010177D01*
X048927Y010169D02*
X048861Y010169D01*
X048861Y010160D02*
X048937Y010160D01*
X048945Y010152D02*
X048861Y010152D01*
X048861Y010143D02*
X048953Y010143D01*
X048962Y010135D02*
X048861Y010135D01*
X048861Y010109D02*
X048987Y010109D01*
X048983Y010113D02*
X048971Y010126D01*
X048996Y010101D02*
X048861Y010101D01*
X048861Y010092D02*
X049007Y010092D01*
X049021Y010084D02*
X048861Y010084D01*
X048861Y010075D02*
X049042Y010075D01*
X049060Y010067D02*
X048861Y010067D01*
X048861Y010058D02*
X049079Y010058D01*
X049095Y010050D02*
X048861Y010050D01*
X048861Y010041D02*
X049106Y010041D01*
X049115Y010033D02*
X048861Y010033D01*
X048861Y010024D02*
X049122Y010024D01*
X049128Y010016D02*
X048861Y010016D01*
X048861Y010007D02*
X049131Y010007D01*
X049133Y009999D02*
X048861Y009999D01*
X048861Y009990D02*
X049133Y009990D01*
X049132Y009982D02*
X048861Y009982D01*
X048861Y009973D02*
X049131Y009973D01*
X049123Y009965D02*
X048861Y009965D01*
X048895Y009812D02*
X048538Y009812D01*
X048538Y009820D02*
X049163Y009820D01*
X049147Y009829D02*
X048538Y009829D01*
X048538Y009837D02*
X049131Y009837D01*
X049115Y009846D02*
X048538Y009846D01*
X048538Y009854D02*
X049100Y009854D01*
X049092Y009863D02*
X048537Y009863D01*
X048537Y009871D02*
X049085Y009871D01*
X049077Y009897D02*
X048537Y009897D01*
X048537Y009905D02*
X049078Y009905D01*
X049079Y009914D02*
X048537Y009914D01*
X048537Y009922D02*
X049081Y009922D01*
X049088Y009931D02*
X048537Y009931D01*
X048537Y009939D02*
X049097Y009939D01*
X049105Y009948D02*
X048537Y009948D01*
X048537Y009956D02*
X049115Y009956D01*
X049183Y009812D02*
X048896Y009812D01*
X048896Y009803D02*
X049205Y009803D01*
X049223Y009795D02*
X048896Y009795D01*
X048896Y009786D02*
X049239Y009786D01*
X049256Y009778D02*
X048896Y009778D01*
X048896Y009769D02*
X049020Y009769D01*
X049039Y009735D02*
X049047Y009735D01*
X049047Y009737D02*
X049047Y009652D01*
X048736Y009582D01*
X048737Y009669D01*
X048737Y009669D01*
X049047Y009737D01*
X049047Y009727D02*
X049000Y009727D01*
X048979Y009761D02*
X048896Y009761D01*
X048897Y009752D02*
X048940Y009752D01*
X048961Y009718D02*
X049047Y009718D01*
X049047Y009710D02*
X048922Y009710D01*
X048883Y009701D02*
X049047Y009701D01*
X049047Y009693D02*
X048844Y009693D01*
X048805Y009684D02*
X049047Y009684D01*
X049047Y009676D02*
X048766Y009676D01*
X048737Y009667D02*
X049047Y009667D01*
X049047Y009659D02*
X048737Y009659D01*
X048737Y009650D02*
X049039Y009650D01*
X049001Y009642D02*
X048737Y009642D01*
X048737Y009633D02*
X048964Y009633D01*
X048980Y009599D02*
X049053Y009599D01*
X049053Y009591D02*
X048941Y009591D01*
X048926Y009625D02*
X048737Y009625D01*
X048737Y009616D02*
X048888Y009616D01*
X048902Y009582D02*
X049053Y009582D01*
X049053Y009574D02*
X048897Y009574D01*
X048897Y009565D02*
X049052Y009565D01*
X049051Y009557D02*
X048897Y009557D01*
X048897Y009548D02*
X049204Y009548D01*
X049193Y009540D02*
X048897Y009540D01*
X048897Y009531D02*
X049183Y009531D01*
X049173Y009523D02*
X048897Y009523D01*
X048897Y009514D02*
X049165Y009514D01*
X049157Y009506D02*
X048871Y009506D01*
X048833Y009497D02*
X049150Y009497D01*
X049143Y009489D02*
X048700Y009489D01*
X048700Y009497D02*
X048801Y009497D01*
X048801Y009506D02*
X048700Y009506D01*
X048700Y009514D02*
X048801Y009514D01*
X048801Y009523D02*
X048700Y009523D01*
X048700Y009531D02*
X048801Y009531D01*
X048801Y009540D02*
X048711Y009540D01*
X048688Y009566D02*
X048698Y009573D01*
X048708Y009586D01*
X048711Y009595D01*
X048712Y009612D01*
X048710Y009627D01*
X048704Y009640D01*
X048697Y009646D01*
X048691Y009653D01*
X048682Y009656D01*
X048664Y009657D01*
X048649Y009656D01*
X048649Y009656D01*
X048637Y009650D01*
X048634Y009646D01*
X048631Y009643D01*
X048628Y009637D01*
X048621Y009627D01*
X048620Y009611D01*
X048621Y009592D01*
X048624Y009586D01*
X048631Y009579D01*
X048637Y009573D01*
X048640Y009570D01*
X048647Y009567D01*
X048656Y009563D01*
X048675Y009563D01*
X048688Y009566D01*
X048684Y009565D02*
X048651Y009565D01*
X048636Y009574D02*
X048698Y009574D01*
X048705Y009582D02*
X048628Y009582D01*
X048622Y009591D02*
X048709Y009591D01*
X048711Y009599D02*
X048621Y009599D01*
X048620Y009608D02*
X048712Y009608D01*
X048712Y009616D02*
X048621Y009616D01*
X048621Y009625D02*
X048711Y009625D01*
X048707Y009633D02*
X048625Y009633D01*
X048630Y009642D02*
X048702Y009642D01*
X048693Y009650D02*
X048638Y009650D01*
X048687Y009701D02*
X048705Y009701D01*
X048686Y009710D02*
X048747Y009710D01*
X048788Y009718D02*
X048685Y009718D01*
X048682Y009727D02*
X048801Y009727D01*
X048801Y009735D02*
X048679Y009735D01*
X048674Y009744D02*
X048801Y009744D01*
X048801Y009752D02*
X048538Y009752D01*
X048538Y009761D02*
X048801Y009761D01*
X048801Y009769D02*
X048538Y009769D01*
X048538Y009778D02*
X048801Y009778D01*
X048801Y009786D02*
X048538Y009786D01*
X048538Y009795D02*
X048819Y009795D01*
X048857Y009803D02*
X048538Y009803D01*
X048736Y009608D02*
X048850Y009608D01*
X048812Y009599D02*
X048736Y009599D01*
X048736Y009591D02*
X048775Y009591D01*
X048788Y009557D02*
X048801Y009557D01*
X048801Y009548D02*
X048752Y009548D01*
X048736Y009582D02*
X048737Y009582D01*
X048700Y009480D02*
X049137Y009480D01*
X049130Y009472D02*
X048701Y009472D01*
X048703Y009446D02*
X049116Y009446D01*
X049111Y009438D02*
X048704Y009438D01*
X048704Y009429D02*
X049107Y009429D01*
X049102Y009421D02*
X048705Y009421D01*
X048707Y009412D02*
X049098Y009412D01*
X049093Y009404D02*
X048708Y009404D01*
X048709Y009395D02*
X049090Y009395D01*
X049086Y009387D02*
X048710Y009387D01*
X048712Y009378D02*
X049083Y009378D01*
X049079Y009370D02*
X048805Y009370D01*
X048768Y009370D02*
X048716Y009370D01*
X048850Y009361D02*
X049075Y009361D01*
X049072Y009353D02*
X048868Y009353D01*
X048881Y009344D02*
X049069Y009344D01*
X049065Y009336D02*
X049060Y009332D01*
X049047Y009330D01*
X049028Y009327D01*
X049004Y009324D01*
X048970Y009320D01*
X048948Y009318D01*
X048929Y009319D01*
X048897Y009324D01*
X048894Y009326D01*
X048888Y009336D01*
X048893Y009327D02*
X049030Y009327D01*
X048959Y009319D02*
X048935Y009319D01*
X049061Y009557D02*
X049218Y009557D01*
X049236Y009565D02*
X049094Y009565D01*
X049124Y009574D02*
X049266Y009574D01*
X049298Y009574D02*
X049370Y009574D01*
X049372Y009582D02*
X049135Y009582D01*
X049137Y009591D02*
X049374Y009591D01*
X049375Y009599D02*
X049140Y009599D01*
X049142Y009608D02*
X049376Y009608D01*
X049375Y009616D02*
X049144Y009616D01*
X049146Y009625D02*
X049374Y009625D01*
X049374Y009633D02*
X049147Y009633D01*
X049149Y009642D02*
X049373Y009642D01*
X049371Y009650D02*
X049151Y009650D01*
X049152Y009659D02*
X049368Y009659D01*
X049365Y009667D02*
X049153Y009667D01*
X049154Y009676D02*
X049360Y009676D01*
X049355Y009684D02*
X049155Y009684D01*
X049154Y009693D02*
X049349Y009693D01*
X049343Y009701D02*
X049153Y009701D01*
X049152Y009710D02*
X049337Y009710D01*
X049330Y009718D02*
X049151Y009718D01*
X049148Y009727D02*
X049322Y009727D01*
X049313Y009735D02*
X049143Y009735D01*
X049138Y009744D02*
X049303Y009744D01*
X049293Y009752D02*
X049129Y009752D01*
X049119Y009761D02*
X049282Y009761D01*
X049269Y009769D02*
X049103Y009769D01*
X049048Y009608D02*
X049020Y009608D01*
X049337Y009565D02*
X049366Y009565D01*
D19*
X038050Y004000D03*
X038050Y003000D03*
X013050Y003000D03*
X013050Y004000D03*
X013050Y020000D03*
X013050Y021000D03*
X038050Y021000D03*
X038050Y020000D03*
X051050Y021000D03*
D20*
X050050Y021000D03*
X049050Y021000D03*
X047050Y021000D03*
X046050Y021000D03*
X045050Y021000D03*
X044050Y021000D03*
X043050Y021000D03*
X042050Y021000D03*
X041050Y021000D03*
X040050Y021000D03*
X039050Y021000D03*
X039050Y020000D03*
X040050Y020000D03*
X041050Y020000D03*
X042050Y020000D03*
X043050Y020000D03*
X044050Y020000D03*
X045050Y020000D03*
X046050Y020000D03*
X047050Y020000D03*
X022050Y020000D03*
X021050Y020000D03*
X020050Y020000D03*
X019050Y020000D03*
X018050Y020000D03*
X017050Y020000D03*
X016050Y020000D03*
X015050Y020000D03*
X014050Y020000D03*
X014050Y021000D03*
X015050Y021000D03*
X016050Y021000D03*
X017050Y021000D03*
X018050Y021000D03*
X019050Y021000D03*
X020050Y021000D03*
X021050Y021000D03*
X022050Y021000D03*
X022050Y004000D03*
X021050Y004000D03*
X020050Y004000D03*
X019050Y004000D03*
X018050Y004000D03*
X017050Y004000D03*
X016050Y004000D03*
X015050Y004000D03*
X014050Y004000D03*
X014050Y003000D03*
X015050Y003000D03*
X016050Y003000D03*
X017050Y003000D03*
X018050Y003000D03*
X019050Y003000D03*
X020050Y003000D03*
X021050Y003000D03*
X022050Y003000D03*
X039050Y003000D03*
X040050Y003000D03*
X041050Y003000D03*
X042050Y003000D03*
X043050Y003000D03*
X044050Y003000D03*
X045050Y003000D03*
X046050Y003000D03*
X047050Y003000D03*
X047050Y004000D03*
X046050Y004000D03*
X045050Y004000D03*
X044050Y004000D03*
X043050Y004000D03*
X042050Y004000D03*
X041050Y004000D03*
X040050Y004000D03*
X039050Y004000D03*
D21*
X026940Y021590D03*
X025160Y021590D03*
D22*
X024670Y020610D03*
X027430Y020610D03*
D23*
X048050Y003000D03*
X049050Y003000D03*
M02*
