G75*
%MOIN*%
%OFA0B0*%
%FSLAX24Y24*%
%IPPOS*%
%LPD*%
%AMOC8*
5,1,8,0,0,1.08239X$1,22.5*
%
%ADD10C,0.0050*%
%ADD11R,0.0660X0.0660*%
%ADD12C,0.0700*%
%ADD13C,0.0520*%
%ADD14R,0.0600X0.0600*%
%ADD15C,0.0600*%
%ADD16C,0.0010*%
%ADD17R,0.0740X0.0740*%
%ADD18C,0.0740*%
%ADD19C,0.0060*%
%ADD20C,0.0080*%
%ADD21C,0.0100*%
%ADD22OC8,0.0600*%
%ADD23C,0.0885*%
%ADD24C,0.0280*%
%ADD25C,0.0768*%
%ADD26C,0.0310*%
%ADD27C,0.0160*%
%ADD28C,0.0120*%
%ADD29C,0.0240*%
D10*
X003018Y022825D02*
X003135Y022825D01*
X003193Y022883D01*
X003135Y023000D02*
X003018Y023000D01*
X002960Y022942D01*
X002960Y022883D01*
X003018Y022825D01*
X003135Y023000D02*
X003193Y023059D01*
X003193Y023117D01*
X003135Y023175D01*
X003018Y023175D01*
X002960Y023117D01*
X003328Y023117D02*
X003562Y022883D01*
X003562Y022825D01*
X003696Y023117D02*
X003930Y022883D01*
X003930Y022825D01*
X004065Y022883D02*
X004123Y022825D01*
X004240Y022825D01*
X004298Y022883D01*
X004433Y022883D02*
X004491Y022825D01*
X004608Y022825D01*
X004667Y022883D01*
X004667Y022942D01*
X004608Y023000D01*
X004491Y023000D01*
X004433Y022942D01*
X004433Y022883D01*
X004491Y023000D02*
X004433Y023059D01*
X004433Y023117D01*
X004491Y023175D01*
X004608Y023175D01*
X004667Y023117D01*
X004667Y023059D01*
X004608Y023000D01*
X004801Y023059D02*
X005035Y022825D01*
X004801Y022825D01*
X004801Y023059D02*
X004801Y023117D01*
X004860Y023175D01*
X004977Y023175D01*
X005035Y023117D01*
X005170Y023175D02*
X005403Y023175D01*
X005403Y022825D01*
X005403Y023000D02*
X005286Y023000D01*
X005538Y023000D02*
X005772Y023000D01*
X005906Y022825D02*
X006140Y022825D01*
X006140Y023175D01*
X006275Y023175D02*
X006508Y022825D01*
X006643Y022825D02*
X006643Y023175D01*
X006508Y023175D02*
X006275Y022825D01*
X006643Y023000D02*
X006876Y023000D01*
X006876Y022825D02*
X006876Y023175D01*
X007011Y023117D02*
X007070Y023175D01*
X007186Y023175D01*
X007245Y023117D01*
X007245Y022883D01*
X007186Y022825D01*
X007070Y022825D01*
X007011Y022883D01*
X007380Y022825D02*
X007380Y023175D01*
X007613Y023175D02*
X007380Y022825D01*
X007613Y022825D02*
X007613Y023175D01*
X007748Y023175D02*
X007748Y022883D01*
X007806Y022825D01*
X007923Y022825D01*
X007981Y022883D01*
X007981Y023175D01*
X008116Y023059D02*
X008116Y022825D01*
X008116Y023000D02*
X008350Y023000D01*
X008350Y023059D02*
X008233Y023175D01*
X008116Y023059D01*
X008350Y023059D02*
X008350Y022825D01*
X008485Y022825D02*
X008718Y022825D01*
X008718Y023175D01*
X004298Y023117D02*
X004240Y023175D01*
X004123Y023175D01*
X004065Y023117D01*
X004065Y023059D01*
X004123Y023000D01*
X004065Y022942D01*
X004065Y022883D01*
X004123Y023000D02*
X004181Y023000D01*
X003930Y023175D02*
X003696Y023175D01*
X003696Y023117D01*
X003562Y023175D02*
X003328Y023175D01*
X003328Y023117D01*
D11*
X008550Y021000D03*
X036050Y004000D03*
X036050Y003000D03*
X008550Y003000D03*
D12*
X009550Y003000D03*
X035050Y003000D03*
X035050Y004000D03*
X009550Y021000D03*
D13*
X038550Y009750D03*
X038550Y007850D03*
D14*
X051050Y005000D03*
X051050Y013000D03*
X051050Y019000D03*
D15*
X051050Y018000D03*
X051050Y017000D03*
X051050Y016000D03*
X051050Y015000D03*
X051050Y012000D03*
X051050Y011000D03*
X051050Y010000D03*
X051050Y009000D03*
X051050Y004000D03*
X051050Y003000D03*
D16*
X049060Y009332D02*
X049047Y009330D01*
X049028Y009327D01*
X049004Y009324D01*
X048970Y009320D01*
X048948Y009318D01*
X048929Y009319D01*
X048897Y009324D01*
X048894Y009326D01*
X048888Y009336D01*
X049065Y009336D01*
X049060Y009332D01*
X049065Y009336D02*
X049069Y009345D01*
X049075Y009362D01*
X049082Y009377D01*
X049093Y009403D01*
X049105Y009426D01*
X049112Y009439D01*
X049121Y009454D01*
X049130Y009471D01*
X049144Y009490D01*
X049159Y009508D01*
X049172Y009522D01*
X049188Y009535D01*
X049203Y009547D01*
X049220Y009558D01*
X049232Y009564D01*
X049247Y009570D01*
X049267Y009574D01*
X049282Y009576D01*
X049300Y009574D01*
X049321Y009570D01*
X049343Y009564D01*
X049358Y009559D01*
X049363Y009560D01*
X049368Y009567D01*
X049371Y009576D01*
X049374Y009590D01*
X049376Y009609D01*
X049374Y009637D01*
X049371Y009653D01*
X049364Y009668D01*
X049355Y009685D01*
X049338Y009708D01*
X049319Y009730D01*
X049289Y009756D01*
X049261Y009775D01*
X049236Y009787D01*
X049210Y009801D01*
X049188Y009810D01*
X049166Y009819D01*
X049140Y009832D01*
X049101Y009854D01*
X049089Y009866D01*
X049079Y009880D01*
X048537Y009880D01*
X048537Y009888D02*
X049078Y009888D01*
X049079Y009880D02*
X049076Y009899D01*
X049080Y009919D01*
X049082Y009925D01*
X049092Y009934D01*
X049105Y009947D01*
X049118Y009959D01*
X049124Y009966D01*
X049131Y009973D01*
X049134Y009994D01*
X049131Y010010D01*
X049127Y010017D01*
X049114Y010034D01*
X049096Y010049D01*
X049082Y010057D01*
X049062Y010066D01*
X049041Y010075D01*
X049018Y010085D01*
X049003Y010094D01*
X048992Y010104D01*
X048983Y010113D01*
X048971Y010126D01*
X048861Y010126D01*
X048861Y010118D02*
X048979Y010118D01*
X048971Y010126D02*
X048952Y010145D01*
X048936Y010161D01*
X048919Y010174D01*
X048897Y010184D01*
X048879Y010190D01*
X048860Y010190D01*
X048861Y010153D01*
X048861Y009963D01*
X048754Y009963D01*
X048647Y009964D01*
X048538Y009963D01*
X048537Y009964D01*
X048538Y009749D01*
X048672Y009748D01*
X048679Y009736D01*
X048685Y009719D01*
X048687Y009698D01*
X048801Y009721D01*
X048801Y009791D01*
X048896Y009812D01*
X048897Y009744D01*
X048909Y009745D01*
X048952Y009755D01*
X049030Y009771D01*
X049046Y009774D01*
X049076Y009774D01*
X049098Y009771D01*
X049113Y009765D01*
X049126Y009755D01*
X049140Y009742D01*
X049149Y009724D01*
X049152Y009714D01*
X049155Y009682D01*
X049151Y009652D01*
X049145Y009620D01*
X049139Y009598D01*
X049134Y009579D01*
X049121Y009572D01*
X049051Y009554D01*
X049053Y009572D01*
X049053Y009599D01*
X049051Y009605D01*
X049047Y009609D01*
X049021Y009608D01*
X048897Y009581D01*
X048897Y009512D01*
X048811Y009492D01*
X048801Y009489D01*
X048801Y009559D01*
X048788Y009557D01*
X048771Y009553D01*
X048744Y009546D01*
X048713Y009540D01*
X048700Y009537D01*
X048700Y009497D01*
X048701Y009463D01*
X049126Y009463D01*
X049121Y009455D02*
X048702Y009455D01*
X048701Y009463D02*
X048705Y009426D01*
X048707Y009405D01*
X048710Y009386D01*
X048713Y009374D01*
X048717Y009367D01*
X048731Y009366D01*
X048753Y009369D01*
X048789Y009371D01*
X048829Y009367D01*
X048851Y009361D01*
X048868Y009352D01*
X048880Y009346D01*
X048888Y009336D01*
X048893Y009327D02*
X049030Y009327D01*
X049069Y009344D02*
X048881Y009344D01*
X048868Y009353D02*
X049072Y009353D01*
X049075Y009361D02*
X048850Y009361D01*
X048805Y009370D02*
X049079Y009370D01*
X049083Y009378D02*
X048712Y009378D01*
X048710Y009387D02*
X049086Y009387D01*
X049090Y009395D02*
X048709Y009395D01*
X048708Y009404D02*
X049093Y009404D01*
X049098Y009412D02*
X048707Y009412D01*
X048705Y009421D02*
X049102Y009421D01*
X049107Y009429D02*
X048704Y009429D01*
X048704Y009438D02*
X049111Y009438D01*
X049116Y009446D02*
X048703Y009446D01*
X048701Y009472D02*
X049130Y009472D01*
X049137Y009480D02*
X048700Y009480D01*
X048700Y009489D02*
X049143Y009489D01*
X049150Y009497D02*
X048833Y009497D01*
X048801Y009497D02*
X048700Y009497D01*
X048700Y009506D02*
X048801Y009506D01*
X048801Y009514D02*
X048700Y009514D01*
X048700Y009523D02*
X048801Y009523D01*
X048801Y009531D02*
X048700Y009531D01*
X048711Y009540D02*
X048801Y009540D01*
X048801Y009548D02*
X048752Y009548D01*
X048788Y009557D02*
X048801Y009557D01*
X048775Y009591D02*
X048736Y009591D01*
X048736Y009599D02*
X048812Y009599D01*
X048850Y009608D02*
X048736Y009608D01*
X048737Y009616D02*
X048888Y009616D01*
X048902Y009582D02*
X049053Y009582D01*
X049053Y009574D02*
X048897Y009574D01*
X048897Y009565D02*
X049052Y009565D01*
X049051Y009557D02*
X048897Y009557D01*
X048897Y009548D02*
X049204Y009548D01*
X049193Y009540D02*
X048897Y009540D01*
X048897Y009531D02*
X049183Y009531D01*
X049173Y009523D02*
X048897Y009523D01*
X048897Y009514D02*
X049165Y009514D01*
X049157Y009506D02*
X048871Y009506D01*
X048941Y009591D02*
X049053Y009591D01*
X049053Y009599D02*
X048980Y009599D01*
X048964Y009633D02*
X048737Y009633D01*
X048737Y009625D02*
X048926Y009625D01*
X049001Y009642D02*
X048737Y009642D01*
X048737Y009650D02*
X049039Y009650D01*
X049047Y009652D02*
X048736Y009582D01*
X048737Y009669D01*
X048737Y009669D01*
X049047Y009737D01*
X049047Y009652D01*
X049047Y009659D02*
X048737Y009659D01*
X048737Y009667D02*
X049047Y009667D01*
X049047Y009676D02*
X048766Y009676D01*
X048747Y009710D02*
X048686Y009710D01*
X048685Y009718D02*
X048788Y009718D01*
X048801Y009727D02*
X048682Y009727D01*
X048679Y009735D02*
X048801Y009735D01*
X048801Y009744D02*
X048674Y009744D01*
X048687Y009701D02*
X048705Y009701D01*
X048691Y009653D02*
X048682Y009656D01*
X048664Y009657D01*
X048649Y009656D01*
X048649Y009656D01*
X048637Y009650D01*
X048634Y009646D01*
X048631Y009643D01*
X048628Y009637D01*
X048621Y009627D01*
X048620Y009611D01*
X048621Y009592D01*
X048624Y009586D01*
X048631Y009579D01*
X048637Y009573D01*
X048640Y009570D01*
X048647Y009567D01*
X048656Y009563D01*
X048675Y009563D01*
X048688Y009566D01*
X048698Y009573D01*
X048708Y009586D01*
X048711Y009595D01*
X048712Y009612D01*
X048710Y009627D01*
X048704Y009640D01*
X048697Y009646D01*
X048691Y009653D01*
X048693Y009650D02*
X048638Y009650D01*
X048630Y009642D02*
X048702Y009642D01*
X048707Y009633D02*
X048625Y009633D01*
X048621Y009625D02*
X048711Y009625D01*
X048712Y009616D02*
X048621Y009616D01*
X048620Y009608D02*
X048712Y009608D01*
X048711Y009599D02*
X048621Y009599D01*
X048622Y009591D02*
X048709Y009591D01*
X048705Y009582D02*
X048628Y009582D01*
X048636Y009574D02*
X048698Y009574D01*
X048684Y009565D02*
X048651Y009565D01*
X048736Y009582D02*
X048737Y009582D01*
X048805Y009684D02*
X049047Y009684D01*
X049047Y009693D02*
X048844Y009693D01*
X048883Y009701D02*
X049047Y009701D01*
X049047Y009710D02*
X048922Y009710D01*
X048961Y009718D02*
X049047Y009718D01*
X049047Y009727D02*
X049000Y009727D01*
X049039Y009735D02*
X049047Y009735D01*
X049020Y009769D02*
X048896Y009769D01*
X048896Y009761D02*
X048979Y009761D01*
X048940Y009752D02*
X048897Y009752D01*
X048896Y009778D02*
X049256Y009778D01*
X049269Y009769D02*
X049103Y009769D01*
X049119Y009761D02*
X049282Y009761D01*
X049293Y009752D02*
X049129Y009752D01*
X049138Y009744D02*
X049303Y009744D01*
X049313Y009735D02*
X049143Y009735D01*
X049148Y009727D02*
X049322Y009727D01*
X049330Y009718D02*
X049151Y009718D01*
X049152Y009710D02*
X049337Y009710D01*
X049343Y009701D02*
X049153Y009701D01*
X049154Y009693D02*
X049349Y009693D01*
X049355Y009684D02*
X049155Y009684D01*
X049154Y009676D02*
X049360Y009676D01*
X049365Y009667D02*
X049153Y009667D01*
X049152Y009659D02*
X049368Y009659D01*
X049371Y009650D02*
X049151Y009650D01*
X049149Y009642D02*
X049373Y009642D01*
X049374Y009633D02*
X049147Y009633D01*
X049146Y009625D02*
X049374Y009625D01*
X049375Y009616D02*
X049144Y009616D01*
X049142Y009608D02*
X049376Y009608D01*
X049375Y009599D02*
X049140Y009599D01*
X049137Y009591D02*
X049374Y009591D01*
X049372Y009582D02*
X049135Y009582D01*
X049124Y009574D02*
X049266Y009574D01*
X049236Y009565D02*
X049094Y009565D01*
X049061Y009557D02*
X049218Y009557D01*
X049298Y009574D02*
X049370Y009574D01*
X049366Y009565D02*
X049337Y009565D01*
X049239Y009786D02*
X048896Y009786D01*
X048896Y009795D02*
X049223Y009795D01*
X049205Y009803D02*
X048896Y009803D01*
X048896Y009812D02*
X049183Y009812D01*
X049163Y009820D02*
X048538Y009820D01*
X048538Y009812D02*
X048895Y009812D01*
X048857Y009803D02*
X048538Y009803D01*
X048538Y009795D02*
X048819Y009795D01*
X048801Y009786D02*
X048538Y009786D01*
X048538Y009778D02*
X048801Y009778D01*
X048801Y009769D02*
X048538Y009769D01*
X048538Y009761D02*
X048801Y009761D01*
X048801Y009752D02*
X048538Y009752D01*
X048538Y009829D02*
X049147Y009829D01*
X049131Y009837D02*
X048538Y009837D01*
X048538Y009846D02*
X049115Y009846D01*
X049100Y009854D02*
X048538Y009854D01*
X048537Y009863D02*
X049092Y009863D01*
X049085Y009871D02*
X048537Y009871D01*
X048537Y009897D02*
X049077Y009897D01*
X049078Y009905D02*
X048537Y009905D01*
X048537Y009914D02*
X049079Y009914D01*
X049081Y009922D02*
X048537Y009922D01*
X048537Y009931D02*
X049088Y009931D01*
X049097Y009939D02*
X048537Y009939D01*
X048537Y009948D02*
X049105Y009948D01*
X049115Y009956D02*
X048537Y009956D01*
X048861Y009965D02*
X049123Y009965D01*
X049131Y009973D02*
X048861Y009973D01*
X048861Y009982D02*
X049132Y009982D01*
X049133Y009990D02*
X048861Y009990D01*
X048861Y009999D02*
X049133Y009999D01*
X049131Y010007D02*
X048861Y010007D01*
X048861Y010016D02*
X049128Y010016D01*
X049122Y010024D02*
X048861Y010024D01*
X048861Y010033D02*
X049115Y010033D01*
X049106Y010041D02*
X048861Y010041D01*
X048861Y010050D02*
X049095Y010050D01*
X049079Y010058D02*
X048861Y010058D01*
X048861Y010067D02*
X049060Y010067D01*
X049042Y010075D02*
X048861Y010075D01*
X048861Y010084D02*
X049021Y010084D01*
X049007Y010092D02*
X048861Y010092D01*
X048861Y010101D02*
X048996Y010101D01*
X048987Y010109D02*
X048861Y010109D01*
X048861Y010135D02*
X048962Y010135D01*
X048953Y010143D02*
X048861Y010143D01*
X048861Y010152D02*
X048945Y010152D01*
X048937Y010160D02*
X048861Y010160D01*
X048861Y010169D02*
X048927Y010169D01*
X048913Y010177D02*
X048860Y010177D01*
X048860Y010186D02*
X048891Y010186D01*
X049020Y009608D02*
X049048Y009608D01*
X048959Y009319D02*
X048935Y009319D01*
X048768Y009370D02*
X048716Y009370D01*
D17*
X038050Y004000D03*
X038050Y003000D03*
X013050Y003000D03*
X013050Y004000D03*
X013050Y020000D03*
X013050Y021000D03*
X038050Y021000D03*
X038050Y020000D03*
X051050Y021000D03*
D18*
X050050Y021000D03*
X049050Y021000D03*
X047050Y021000D03*
X046050Y021000D03*
X045050Y021000D03*
X044050Y021000D03*
X043050Y021000D03*
X042050Y021000D03*
X041050Y021000D03*
X040050Y021000D03*
X039050Y021000D03*
X039050Y020000D03*
X040050Y020000D03*
X041050Y020000D03*
X042050Y020000D03*
X043050Y020000D03*
X044050Y020000D03*
X045050Y020000D03*
X046050Y020000D03*
X047050Y020000D03*
X022050Y020000D03*
X021050Y020000D03*
X020050Y020000D03*
X019050Y020000D03*
X018050Y020000D03*
X017050Y020000D03*
X016050Y020000D03*
X015050Y020000D03*
X014050Y020000D03*
X014050Y021000D03*
X015050Y021000D03*
X016050Y021000D03*
X017050Y021000D03*
X018050Y021000D03*
X019050Y021000D03*
X020050Y021000D03*
X021050Y021000D03*
X022050Y021000D03*
X022050Y004000D03*
X021050Y004000D03*
X020050Y004000D03*
X019050Y004000D03*
X018050Y004000D03*
X017050Y004000D03*
X016050Y004000D03*
X015050Y004000D03*
X014050Y004000D03*
X014050Y003000D03*
X015050Y003000D03*
X016050Y003000D03*
X017050Y003000D03*
X018050Y003000D03*
X019050Y003000D03*
X020050Y003000D03*
X021050Y003000D03*
X022050Y003000D03*
X039050Y003000D03*
X040050Y003000D03*
X041050Y003000D03*
X042050Y003000D03*
X043050Y003000D03*
X044050Y003000D03*
X045050Y003000D03*
X046050Y003000D03*
X047050Y003000D03*
X047050Y004000D03*
X046050Y004000D03*
X045050Y004000D03*
X044050Y004000D03*
X043050Y004000D03*
X042050Y004000D03*
X041050Y004000D03*
X040050Y004000D03*
X039050Y004000D03*
D19*
X031880Y002813D02*
X031880Y002586D01*
X031653Y002813D01*
X031710Y002870D01*
X031823Y002870D01*
X031880Y002813D01*
X031880Y002586D02*
X031823Y002530D01*
X031710Y002530D01*
X031653Y002586D01*
X031653Y002813D01*
X031512Y002700D02*
X031285Y002700D01*
X031143Y002757D02*
X031143Y002530D01*
X030917Y002530D02*
X030917Y002757D01*
X031030Y002870D01*
X031143Y002757D01*
X030775Y002700D02*
X030548Y002700D01*
X030718Y002530D01*
X030718Y002870D01*
X030407Y002813D02*
X030407Y002586D01*
X030350Y002530D01*
X030237Y002530D01*
X030180Y002586D01*
X030180Y002643D01*
X030237Y002700D01*
X030407Y002700D01*
X030407Y002813D02*
X030350Y002870D01*
X030237Y002870D01*
X030180Y002813D01*
X029497Y002270D02*
X029327Y002270D01*
X029271Y002213D01*
X029271Y002100D01*
X029327Y002043D01*
X029497Y002043D01*
X029497Y001930D02*
X029497Y002270D01*
X029129Y002157D02*
X028902Y002157D01*
X028902Y002213D02*
X028902Y002100D01*
X028959Y002043D01*
X029072Y002043D01*
X029129Y002100D01*
X029129Y002157D01*
X029072Y002270D02*
X028959Y002270D01*
X028902Y002213D01*
X028761Y002043D02*
X028647Y002270D01*
X028534Y002043D01*
X028392Y002100D02*
X028336Y002043D01*
X028222Y002043D01*
X028166Y002100D01*
X028166Y002213D01*
X028222Y002270D01*
X028336Y002270D01*
X028392Y002213D01*
X028392Y002100D01*
X028029Y002043D02*
X027972Y002043D01*
X027859Y002157D01*
X027859Y002270D02*
X027859Y002043D01*
X027717Y002100D02*
X027717Y002213D01*
X027661Y002270D01*
X027490Y002270D01*
X027490Y002383D02*
X027490Y002043D01*
X027661Y002043D01*
X027717Y002100D01*
X027349Y002100D02*
X027349Y002213D01*
X027292Y002270D01*
X027122Y002270D01*
X027122Y002383D02*
X027122Y002043D01*
X027292Y002043D01*
X027349Y002100D01*
X026981Y002100D02*
X026981Y002270D01*
X026810Y002270D01*
X026754Y002213D01*
X026810Y002157D01*
X026981Y002157D01*
X026981Y002100D02*
X026924Y002043D01*
X026810Y002043D01*
X026688Y002530D02*
X026688Y002870D01*
X026744Y002870D02*
X026631Y002870D01*
X026490Y002870D02*
X026319Y002870D01*
X026263Y002813D01*
X026319Y002757D01*
X026490Y002757D01*
X026490Y002700D02*
X026490Y002870D01*
X026490Y002700D02*
X026433Y002643D01*
X026319Y002643D01*
X026121Y002643D02*
X025951Y002643D01*
X025894Y002700D01*
X025951Y002757D01*
X026064Y002757D01*
X026121Y002813D01*
X026064Y002870D01*
X025894Y002870D01*
X025753Y002757D02*
X025526Y002757D01*
X025526Y002813D02*
X025526Y002700D01*
X025583Y002643D01*
X025696Y002643D01*
X025753Y002700D01*
X025753Y002757D01*
X025696Y002870D02*
X025583Y002870D01*
X025526Y002813D01*
X025389Y002643D02*
X025333Y002643D01*
X025219Y002757D01*
X025219Y002870D02*
X025219Y002643D01*
X024714Y002643D02*
X024657Y002643D01*
X024544Y002757D01*
X024544Y002870D02*
X024544Y002643D01*
X024402Y002700D02*
X024346Y002643D01*
X024232Y002643D01*
X024176Y002700D01*
X024176Y002813D01*
X024232Y002870D01*
X024346Y002870D01*
X024402Y002813D01*
X024402Y002700D01*
X024043Y002700D02*
X023930Y002700D01*
X023987Y002586D02*
X024043Y002530D01*
X023987Y002586D02*
X023987Y002870D01*
X023930Y002270D02*
X023930Y002043D01*
X024100Y002043D01*
X024157Y002100D01*
X024157Y002270D01*
X024298Y002213D02*
X024355Y002270D01*
X024468Y002270D01*
X024525Y002213D01*
X024525Y002100D01*
X024468Y002043D01*
X024355Y002043D01*
X024298Y002100D01*
X024298Y002213D01*
X024667Y002043D02*
X024780Y002043D01*
X024723Y001986D02*
X024723Y002213D01*
X024780Y002270D01*
X025280Y002270D02*
X025280Y001930D01*
X025507Y001930D01*
X025649Y001986D02*
X025649Y002213D01*
X025706Y002270D01*
X025819Y002270D01*
X025876Y002213D01*
X026017Y002213D02*
X026074Y002270D01*
X026187Y002270D01*
X026244Y002213D01*
X026244Y001986D02*
X026187Y001930D01*
X026074Y001930D01*
X026017Y001986D01*
X026017Y002213D01*
X025876Y001986D02*
X025819Y001930D01*
X025706Y001930D01*
X025649Y001986D01*
X025394Y002100D02*
X025280Y002100D01*
X025399Y001670D02*
X025342Y001613D01*
X025342Y001500D01*
X025399Y001443D01*
X025512Y001443D01*
X025569Y001500D01*
X025569Y001557D01*
X025342Y001557D01*
X025399Y001670D02*
X025512Y001670D01*
X025710Y001443D02*
X025824Y001670D01*
X025937Y001443D01*
X026135Y001443D02*
X026249Y001443D01*
X026305Y001500D01*
X026305Y001670D01*
X026135Y001670D01*
X026079Y001613D01*
X026135Y001557D01*
X026305Y001557D01*
X026447Y001670D02*
X026560Y001670D01*
X026504Y001670D02*
X026504Y001330D01*
X026447Y001330D01*
X026692Y001443D02*
X026692Y001613D01*
X026749Y001670D01*
X026919Y001670D01*
X026919Y001443D01*
X027117Y001443D02*
X027231Y001443D01*
X027288Y001500D01*
X027288Y001670D01*
X027117Y001670D01*
X027061Y001613D01*
X027117Y001557D01*
X027288Y001557D01*
X027429Y001443D02*
X027542Y001443D01*
X027486Y001386D02*
X027486Y001613D01*
X027542Y001670D01*
X027675Y001670D02*
X027788Y001670D01*
X027731Y001670D02*
X027731Y001443D01*
X027675Y001443D01*
X027731Y001330D02*
X027731Y001273D01*
X027920Y001500D02*
X027920Y001613D01*
X027977Y001670D01*
X028090Y001670D01*
X028147Y001613D01*
X028147Y001500D01*
X028090Y001443D01*
X027977Y001443D01*
X027920Y001500D01*
X028288Y001443D02*
X028459Y001443D01*
X028515Y001500D01*
X028515Y001670D01*
X028288Y001670D02*
X028288Y001443D01*
X029025Y001500D02*
X029025Y001613D01*
X029082Y001670D01*
X029195Y001670D01*
X029252Y001613D01*
X029252Y001500D01*
X029195Y001443D01*
X029082Y001443D01*
X029025Y001500D01*
X029393Y001443D02*
X029393Y001670D01*
X029393Y001443D02*
X029563Y001443D01*
X029620Y001500D01*
X029620Y001670D01*
X029762Y001670D02*
X029875Y001670D01*
X029818Y001670D02*
X029818Y001330D01*
X029762Y001330D01*
X030007Y001443D02*
X030007Y001613D01*
X030064Y001670D01*
X030234Y001670D01*
X030234Y001727D02*
X030177Y001783D01*
X030121Y001783D01*
X030234Y001727D02*
X030234Y001443D01*
X030432Y001443D02*
X030432Y001500D01*
X030489Y001500D01*
X030489Y001443D01*
X030432Y001443D01*
X030432Y001613D02*
X030432Y001670D01*
X030489Y001670D01*
X030489Y001613D01*
X030432Y001613D01*
X030489Y001670D02*
X030376Y001783D01*
X027302Y002813D02*
X027302Y002870D01*
X027245Y002870D01*
X027245Y002813D01*
X027302Y002813D01*
X027103Y002757D02*
X026877Y002757D01*
X026877Y002813D02*
X026877Y002700D01*
X026933Y002643D01*
X027047Y002643D01*
X027103Y002700D01*
X027103Y002757D01*
X027047Y002870D02*
X026933Y002870D01*
X026877Y002813D01*
X026688Y002530D02*
X026631Y002530D01*
X024837Y001443D02*
X024780Y001443D01*
X024667Y001557D01*
X024667Y001670D02*
X024667Y001443D01*
X024525Y001500D02*
X024468Y001443D01*
X024355Y001443D01*
X024298Y001500D01*
X024298Y001613D01*
X024355Y001670D01*
X024468Y001670D01*
X024525Y001613D01*
X024525Y001500D01*
X024157Y001330D02*
X023930Y001330D01*
X023930Y001670D01*
X023930Y001500D02*
X024043Y001500D01*
D20*
X031040Y001690D02*
X031250Y001690D01*
X031320Y001760D01*
X031320Y001900D01*
X031250Y001970D01*
X031040Y001970D01*
X031040Y002110D02*
X031040Y001690D01*
X031500Y001690D02*
X031500Y002110D01*
X031711Y002110D01*
X031781Y002040D01*
X031781Y001900D01*
X031711Y001830D01*
X031500Y001830D01*
D21*
X030817Y001850D02*
X030819Y001898D01*
X030825Y001946D01*
X030835Y001993D01*
X030849Y002039D01*
X030866Y002084D01*
X030887Y002127D01*
X030912Y002169D01*
X030940Y002208D01*
X030971Y002245D01*
X031005Y002279D01*
X031042Y002310D01*
X031081Y002338D01*
X031123Y002363D01*
X031166Y002384D01*
X031211Y002401D01*
X031257Y002415D01*
X031304Y002425D01*
X031352Y002431D01*
X031400Y002433D01*
X031448Y002431D01*
X031496Y002425D01*
X031543Y002415D01*
X031589Y002401D01*
X031634Y002384D01*
X031677Y002363D01*
X031719Y002338D01*
X031758Y002310D01*
X031795Y002279D01*
X031829Y002245D01*
X031860Y002208D01*
X031888Y002169D01*
X031913Y002127D01*
X031934Y002084D01*
X031951Y002039D01*
X031965Y001993D01*
X031975Y001946D01*
X031981Y001898D01*
X031983Y001850D01*
X031981Y001802D01*
X031975Y001754D01*
X031965Y001707D01*
X031951Y001661D01*
X031934Y001616D01*
X031913Y001573D01*
X031888Y001531D01*
X031860Y001492D01*
X031829Y001455D01*
X031795Y001421D01*
X031758Y001390D01*
X031719Y001362D01*
X031677Y001337D01*
X031634Y001316D01*
X031589Y001299D01*
X031543Y001285D01*
X031496Y001275D01*
X031448Y001269D01*
X031400Y001267D01*
X031352Y001269D01*
X031304Y001275D01*
X031257Y001285D01*
X031211Y001299D01*
X031166Y001316D01*
X031123Y001337D01*
X031081Y001362D01*
X031042Y001390D01*
X031005Y001421D01*
X030971Y001455D01*
X030940Y001492D01*
X030912Y001531D01*
X030887Y001573D01*
X030866Y001616D01*
X030849Y001661D01*
X030835Y001707D01*
X030825Y001754D01*
X030819Y001802D01*
X030817Y001850D01*
X031050Y002300D02*
X031850Y001500D01*
X032150Y001100D02*
X023750Y001100D01*
X023750Y003100D01*
X032150Y003100D01*
X032150Y001100D01*
X032750Y002700D02*
X032950Y002900D01*
X032950Y006000D01*
X032750Y006200D01*
X032350Y006400D02*
X032350Y004000D01*
X032050Y003700D01*
X031650Y004100D02*
X031450Y003900D01*
X031650Y004100D02*
X031650Y006700D01*
X030950Y007300D02*
X030950Y003900D01*
X033350Y004000D02*
X033650Y004300D01*
X033650Y006400D01*
X033350Y006700D01*
X033350Y011000D01*
X033150Y011200D01*
X033150Y012700D01*
X033550Y013100D01*
X033550Y014800D01*
X034250Y015500D01*
X035650Y015300D02*
X035650Y016500D01*
X035450Y016700D01*
X035450Y019300D01*
X034850Y019900D01*
X034850Y020300D01*
X034650Y020500D01*
X028550Y020500D01*
X027750Y019700D01*
X024850Y019700D01*
X024650Y019500D01*
X024650Y014500D01*
X024450Y014300D01*
X024050Y014600D02*
X024050Y016800D01*
X024450Y017200D01*
X024450Y019600D01*
X024750Y019900D01*
X027650Y019900D01*
X028450Y020700D01*
X034050Y020700D01*
X034750Y021400D01*
X035850Y021400D01*
X036250Y021000D01*
X036250Y017100D01*
X036750Y016600D01*
X036750Y014100D01*
X036650Y014000D01*
X036250Y014200D02*
X036550Y014500D01*
X036550Y016500D01*
X036050Y017000D01*
X036050Y019850D01*
X035850Y020050D01*
X035450Y019900D02*
X035450Y020300D01*
X035250Y020000D02*
X035050Y020200D01*
X035050Y021100D01*
X036650Y020300D02*
X036650Y018100D01*
X036550Y018000D01*
X036950Y017900D02*
X037050Y018000D01*
X037050Y020300D01*
X036850Y020500D01*
X036850Y020900D01*
X036950Y021000D01*
X036950Y021500D01*
X037150Y020700D02*
X037250Y020600D01*
X037250Y017800D01*
X037150Y017700D01*
X037150Y016400D01*
X037250Y016300D01*
X036350Y016400D02*
X035850Y016900D01*
X035850Y019500D01*
X035450Y019900D01*
X035250Y019800D02*
X035250Y020000D01*
X035250Y019800D02*
X035650Y019400D01*
X035650Y016800D01*
X036050Y016400D01*
X036050Y015900D01*
X036350Y016400D02*
X036350Y014900D01*
X035850Y014400D01*
X038150Y013800D02*
X038350Y014000D01*
X038350Y017300D01*
X038150Y017500D01*
X038550Y017800D02*
X038550Y013500D01*
X038750Y013300D01*
X039300Y012850D02*
X039300Y015000D01*
X039200Y015100D01*
X039200Y016450D01*
X039350Y016600D01*
X039350Y017300D01*
X039550Y017100D02*
X040050Y017600D01*
X040050Y020000D01*
X039550Y020500D02*
X039550Y017700D01*
X039650Y017600D01*
X039550Y017100D02*
X039550Y016300D01*
X039850Y015800D02*
X039850Y014150D01*
X039700Y014000D01*
X039700Y013150D01*
X039850Y013000D01*
X039850Y006900D01*
X039150Y006200D01*
X038850Y006500D02*
X039650Y007300D01*
X039650Y012850D01*
X039500Y013000D01*
X039500Y014150D01*
X039550Y014200D01*
X039550Y015200D01*
X040650Y015000D02*
X040650Y014150D01*
X040800Y014000D01*
X040800Y013150D01*
X040650Y013000D01*
X040650Y006900D01*
X041000Y006550D01*
X040850Y006400D01*
X041000Y006550D02*
X042250Y005300D01*
X042650Y005300D01*
X043550Y004400D01*
X043550Y003500D01*
X044050Y003000D01*
X044550Y002300D02*
X044550Y004400D01*
X043450Y005500D01*
X042350Y005500D01*
X040850Y007000D01*
X040850Y012900D01*
X041000Y013050D01*
X041000Y016950D01*
X040850Y017100D01*
X041050Y017300D02*
X041050Y020000D01*
X041550Y020500D02*
X041550Y017900D01*
X042050Y018400D02*
X042250Y018200D01*
X042050Y018400D02*
X042050Y020000D01*
X041550Y020500D02*
X042050Y021000D01*
X042550Y020500D02*
X042550Y017000D01*
X042150Y016600D01*
X042150Y015400D01*
X041350Y016300D02*
X041200Y016450D01*
X041200Y017150D01*
X041050Y017300D01*
X040450Y016800D02*
X040300Y016650D01*
X040300Y014200D01*
X040600Y013900D01*
X040600Y013250D01*
X040450Y013100D01*
X040450Y005500D01*
X041550Y004400D01*
X041550Y003500D01*
X041050Y003000D02*
X040550Y003500D01*
X040550Y004600D01*
X040250Y004900D01*
X040250Y013400D01*
X040050Y013100D02*
X039900Y013250D01*
X039900Y013650D01*
X040050Y013800D01*
X040050Y013100D02*
X040050Y004900D01*
X039550Y004400D01*
X039550Y003500D01*
X040050Y003000D01*
X040450Y002100D02*
X044350Y002100D01*
X044550Y002300D01*
X045550Y003500D02*
X046050Y003000D01*
X045550Y003500D02*
X045550Y004400D01*
X044250Y005700D01*
X042450Y005700D01*
X041050Y007100D01*
X041050Y011200D01*
X041450Y011600D01*
X039450Y012700D02*
X039300Y012850D01*
X039450Y012700D02*
X039450Y007400D01*
X038850Y006800D01*
X038550Y006800D01*
X038350Y006600D01*
X037150Y005900D02*
X037150Y002500D01*
X036850Y002200D01*
X034350Y003400D02*
X034150Y003200D01*
X034350Y003400D02*
X034350Y004900D01*
X035100Y005650D01*
X035100Y006850D01*
X035450Y007200D01*
X035450Y007900D01*
X035050Y008300D01*
X035050Y008700D01*
X035650Y009300D01*
X035650Y011600D01*
X036150Y012100D01*
X035450Y012100D02*
X036350Y013000D01*
X035450Y012100D02*
X035450Y009400D01*
X034850Y008800D01*
X034850Y008200D01*
X035250Y007800D01*
X035250Y007300D01*
X034900Y006950D01*
X034900Y005750D01*
X034150Y005000D01*
X034150Y004300D01*
X033950Y004100D01*
X036250Y006800D02*
X037150Y005900D01*
X036250Y006800D02*
X036250Y008600D01*
X036550Y008900D01*
X036550Y010900D01*
X036350Y011100D01*
X036950Y011100D02*
X036950Y017900D01*
X035250Y018450D02*
X035100Y018300D01*
X035250Y018450D02*
X035250Y019200D01*
X034700Y019750D01*
X034500Y019750D01*
X033650Y019500D02*
X033650Y016800D01*
X033450Y017050D02*
X033450Y019100D01*
X033350Y019200D01*
X033150Y018600D02*
X032650Y019100D01*
X032650Y019200D01*
X032550Y018500D02*
X032350Y018300D01*
X032350Y017900D01*
X031750Y017300D01*
X031750Y014700D01*
X031450Y014400D01*
X031450Y013700D01*
X031850Y013300D01*
X032150Y013300D01*
X031950Y013700D02*
X031850Y013700D01*
X031650Y013900D01*
X031650Y014200D01*
X031950Y014500D01*
X031950Y017200D01*
X032750Y018000D01*
X032750Y018100D01*
X033450Y017050D02*
X033200Y016800D01*
X029950Y018900D02*
X029900Y018850D01*
X029950Y018900D02*
X029950Y020200D01*
X029150Y019600D02*
X028950Y019800D01*
X028950Y020150D01*
X028650Y019900D02*
X028550Y020000D01*
X028650Y019900D02*
X028650Y019700D01*
X028950Y019400D01*
X028950Y013800D01*
X028850Y013700D01*
X029250Y014100D02*
X029150Y014200D01*
X029150Y019600D01*
X028650Y019200D02*
X028650Y017500D01*
X028650Y016900D01*
X028350Y016700D02*
X028350Y017800D01*
X027950Y017800D02*
X027850Y017900D01*
X027950Y017800D02*
X027950Y016800D01*
X028350Y016700D02*
X028650Y016400D01*
X027450Y016900D02*
X027250Y017100D01*
X027250Y017900D01*
X027650Y018300D01*
X027050Y018300D02*
X027050Y016700D01*
X027250Y016500D01*
X026950Y016100D02*
X026700Y016350D01*
X026700Y018500D01*
X027050Y018850D01*
X026500Y018350D02*
X026350Y018500D01*
X026500Y018350D02*
X026500Y016100D01*
X026050Y016100D02*
X026050Y018700D01*
X026250Y018900D01*
X025850Y019000D02*
X025700Y018850D01*
X025700Y015850D01*
X025750Y015800D01*
X025350Y016100D02*
X025350Y019100D01*
X025550Y019300D01*
X024050Y019400D02*
X023750Y019700D01*
X024050Y019400D02*
X024050Y017100D01*
X023850Y016900D01*
X023850Y016400D01*
X023750Y016300D01*
X023450Y016700D02*
X023450Y021000D01*
X023650Y021500D01*
X022550Y020500D02*
X022050Y021000D01*
X021550Y020500D02*
X021550Y018100D01*
X022550Y017900D02*
X022550Y020500D01*
X021550Y020500D02*
X021050Y021000D01*
X020550Y020500D02*
X020550Y016600D01*
X020050Y016100D01*
X020050Y015100D01*
X019750Y014700D02*
X019550Y014900D01*
X019550Y020500D01*
X019050Y021000D01*
X018550Y020500D02*
X018550Y012600D01*
X018650Y012500D01*
X018650Y007500D01*
X018450Y007300D01*
X018450Y006900D01*
X018550Y006800D01*
X018550Y006300D01*
X017850Y006700D02*
X017850Y009700D01*
X017750Y009800D01*
X017750Y011900D01*
X017150Y011450D02*
X017150Y010500D01*
X017350Y010300D01*
X017350Y009600D01*
X017450Y009500D01*
X017450Y007900D01*
X017350Y007800D01*
X017350Y007700D01*
X018750Y007100D02*
X018850Y007200D01*
X018850Y012600D01*
X018750Y012700D01*
X018750Y016050D01*
X018900Y016200D01*
X019200Y016550D02*
X019350Y016700D01*
X019350Y019700D01*
X019050Y020000D01*
X018550Y020500D02*
X018050Y021000D01*
X017550Y020500D02*
X017550Y016600D01*
X019950Y016600D02*
X020050Y016700D01*
X020050Y020000D01*
X020550Y020500D02*
X020050Y021000D01*
X017550Y020500D02*
X017050Y021000D01*
X015550Y020500D02*
X015550Y018700D01*
X015750Y018500D01*
X015750Y009900D01*
X015650Y009800D01*
X016050Y010300D02*
X016050Y004000D01*
X015050Y004000D02*
X015050Y011100D01*
X016550Y010700D02*
X016650Y010800D01*
X016550Y010700D02*
X016550Y004600D01*
X017550Y004600D02*
X017550Y003500D01*
X017050Y003000D01*
X016050Y003000D02*
X016050Y002600D01*
X015350Y001900D01*
X014050Y003000D02*
X014550Y003500D01*
X014550Y004600D01*
X015450Y005300D02*
X015750Y005600D01*
X015750Y007200D01*
X014550Y007700D02*
X014150Y007300D01*
X012950Y007300D01*
X012050Y007100D02*
X012050Y015200D01*
X012550Y015700D01*
X014850Y016900D02*
X014850Y018300D01*
X014550Y018600D01*
X014550Y020500D01*
X014050Y021000D01*
X015050Y021000D02*
X015550Y020500D01*
X020950Y018500D02*
X020950Y017900D01*
X020900Y017850D01*
X022650Y016350D02*
X022250Y015950D01*
X022250Y012200D01*
X022250Y011400D02*
X022250Y009600D01*
X022150Y009500D01*
X020050Y010700D02*
X020050Y004000D01*
X019550Y003500D02*
X019550Y004600D01*
X020550Y004600D02*
X020550Y003500D01*
X020050Y003000D01*
X019550Y003500D02*
X019050Y003000D01*
X019050Y004000D02*
X019050Y012800D01*
X021050Y013200D02*
X021050Y004000D01*
X021550Y003500D02*
X021550Y004600D01*
X023200Y005350D02*
X023200Y005550D01*
X022750Y006000D01*
X022750Y007600D01*
X022650Y007700D01*
X022600Y007700D01*
X023550Y007000D02*
X024550Y006000D01*
X024550Y005300D01*
X024450Y005200D01*
X024000Y005500D02*
X023700Y005800D01*
X023550Y005800D01*
X023150Y006200D01*
X023150Y013000D01*
X023350Y013200D01*
X023350Y013500D01*
X023750Y013700D02*
X023750Y013300D01*
X023350Y012900D01*
X023350Y006300D01*
X023550Y006100D01*
X023950Y006100D01*
X024150Y005900D01*
X023550Y005500D02*
X022950Y006100D01*
X022950Y013300D01*
X023550Y012800D02*
X023550Y007000D01*
X025250Y007400D02*
X025350Y007300D01*
X025350Y004700D01*
X025450Y004600D01*
X026150Y005500D02*
X026350Y005300D01*
X026150Y005500D02*
X026150Y007800D01*
X025850Y008100D01*
X025850Y009200D01*
X025450Y009000D02*
X025650Y008800D01*
X025650Y008000D01*
X025950Y007700D01*
X025950Y005900D01*
X025750Y005700D01*
X023850Y004700D02*
X023850Y003800D01*
X023250Y003200D01*
X021550Y003500D02*
X021050Y003000D01*
X018050Y004000D02*
X018050Y009900D01*
X017650Y009600D02*
X017550Y009700D01*
X017550Y010500D01*
X017450Y010600D01*
X017650Y009600D02*
X017650Y007100D01*
X017550Y007000D01*
X017850Y006700D02*
X017750Y006600D01*
X019750Y006100D02*
X019850Y006200D01*
X019850Y010400D01*
X019750Y010500D01*
X019750Y014700D01*
X023550Y012800D02*
X024150Y013400D01*
X024150Y013900D01*
X025850Y010800D02*
X025250Y010200D01*
X025250Y007400D01*
X025450Y009000D02*
X025450Y009600D01*
X025650Y009800D01*
X025850Y009800D01*
X034250Y009000D02*
X034650Y009000D01*
X034650Y007700D01*
X034850Y007500D01*
X034650Y009000D02*
X034650Y009400D01*
X035150Y009900D01*
X042650Y006300D02*
X043050Y005900D01*
X045050Y005900D01*
X046550Y004400D01*
X046550Y003500D01*
X047050Y003000D01*
X046850Y010203D02*
X046853Y010300D01*
X045550Y017000D02*
X046050Y017500D01*
X046050Y018600D01*
X046550Y019100D01*
X046550Y020500D01*
X046050Y021000D01*
X045050Y021000D02*
X044550Y020500D01*
X044550Y017200D01*
X045350Y017000D02*
X045550Y017000D01*
X043550Y017400D02*
X043550Y020500D01*
X044050Y021000D01*
X043050Y021000D02*
X042550Y020500D01*
X039550Y020500D02*
X039050Y021000D01*
X028650Y019200D02*
X028250Y019600D01*
X028250Y019750D01*
X011850Y013300D02*
X011650Y013500D01*
X011850Y013300D02*
X011850Y007500D01*
X011350Y007000D01*
X011350Y006600D01*
X008650Y007400D02*
X007550Y006300D01*
X007550Y006100D01*
X007600Y006950D02*
X008450Y007800D01*
X008450Y014500D01*
X008950Y015000D01*
X008950Y017000D01*
X008150Y017800D01*
X008150Y019700D01*
X007750Y020100D01*
X006250Y020100D01*
X006550Y019800D02*
X007750Y019800D01*
X007950Y019600D01*
X007950Y017200D01*
X008550Y016600D01*
X008550Y015400D01*
X007550Y014400D01*
X007550Y011900D01*
X006150Y010500D01*
X006150Y011000D02*
X007350Y012200D01*
X007350Y014500D01*
X008250Y015400D01*
X008250Y016500D01*
X008650Y016900D02*
X008750Y016800D01*
X008750Y015100D01*
X008250Y014600D01*
X008250Y009100D01*
X007550Y008400D01*
X007550Y008100D01*
X008650Y007400D02*
X008650Y014000D01*
X008750Y014100D01*
X008750Y014400D01*
X007850Y015400D02*
X007150Y014700D01*
X007150Y012500D01*
X006150Y011500D01*
X006150Y012000D02*
X006950Y012800D01*
X006950Y014900D01*
X007450Y015400D01*
X003650Y016200D02*
X003250Y016200D01*
X003150Y016300D01*
X003150Y018300D01*
X002650Y018800D01*
X002650Y019400D01*
X003050Y019400D02*
X003050Y018700D01*
X003350Y018400D01*
X003350Y016700D01*
X003450Y016600D01*
X003650Y016600D01*
X012750Y010400D02*
X013350Y011000D01*
X012750Y010400D02*
X012450Y010400D01*
X017050Y009500D02*
X017050Y004000D01*
X023200Y005350D02*
X023850Y004700D01*
D22*
X025160Y021590D03*
X026940Y021590D03*
D23*
X027430Y020610D03*
X024670Y020610D03*
D24*
X006650Y003500D03*
X007250Y003500D03*
X007850Y003500D03*
X007850Y004000D03*
X007250Y004000D03*
X006650Y004000D03*
X005750Y003900D03*
X005150Y003900D03*
X004550Y003900D03*
X005450Y004650D03*
X005450Y005100D03*
X006650Y004600D03*
X007250Y004600D03*
X008450Y004000D03*
X010250Y004300D03*
X011050Y005000D03*
X011250Y005500D03*
X007550Y006100D03*
X007600Y006950D03*
X007550Y008100D03*
X006750Y008900D03*
X006150Y009400D03*
X004450Y008600D03*
X004050Y008400D03*
X003550Y008400D03*
X003550Y007800D03*
X005250Y007400D03*
X006150Y008100D03*
X004050Y009700D03*
X003350Y009800D03*
X002850Y009800D03*
X002350Y009800D03*
X001850Y009800D03*
X001250Y009800D03*
X001150Y010500D03*
X002350Y010500D03*
X003650Y011300D03*
X004050Y011300D03*
X004450Y011300D03*
X004450Y010900D03*
X004450Y010500D03*
X004950Y010900D03*
X006150Y011000D03*
X006150Y010500D03*
X006150Y011500D03*
X005250Y011500D03*
X006150Y012000D03*
X006150Y012500D03*
X006150Y013000D03*
X006250Y013400D03*
X006650Y013400D03*
X005250Y013400D03*
X004850Y013400D03*
X003550Y012900D03*
X004050Y014700D03*
X003550Y015100D03*
X004350Y015400D03*
X005650Y015200D03*
X006050Y015200D03*
X006739Y015400D03*
X007450Y015400D03*
X007850Y015400D03*
X008250Y016500D03*
X007450Y016700D03*
X006650Y017000D03*
X006050Y017000D03*
X005450Y017000D03*
X005450Y017600D03*
X006050Y017600D03*
X006650Y017600D03*
X006650Y018200D03*
X006050Y018200D03*
X005450Y018200D03*
X003850Y018900D03*
X003050Y019400D03*
X002650Y019400D03*
X001750Y019100D03*
X002650Y018300D03*
X001750Y018000D03*
X003750Y017600D03*
X003650Y016600D03*
X003650Y016200D03*
X007950Y014200D03*
X008750Y014400D03*
X009650Y014000D03*
X009650Y013200D03*
X010350Y013200D03*
X011050Y012500D03*
X013250Y013700D03*
X013250Y014700D03*
X014350Y016200D03*
X014350Y017100D03*
X015250Y017600D03*
X016250Y017600D03*
X014350Y018000D03*
X012150Y017100D03*
X008650Y016900D03*
X008550Y018900D03*
X006550Y019800D03*
X006250Y020100D03*
X005750Y019800D03*
X004250Y020100D03*
X004250Y021100D03*
X006850Y021100D03*
X008150Y020300D03*
X001750Y020100D03*
X009650Y014800D03*
X010350Y014800D03*
X007950Y013600D03*
X011050Y010000D03*
X011050Y009400D03*
X011050Y008500D03*
X011050Y008000D03*
X005250Y005800D03*
X007850Y002900D03*
X010350Y003000D03*
X010350Y002600D03*
X010850Y002600D03*
X010850Y003000D03*
X011350Y003000D03*
X011350Y002600D03*
X020550Y013700D03*
X020550Y014700D03*
X020550Y015700D03*
X018850Y017600D03*
X023950Y020400D03*
X023950Y020800D03*
X042850Y016400D03*
X045550Y017800D03*
X046550Y017800D03*
X047450Y017200D03*
X047850Y016700D03*
X048450Y016400D03*
X049550Y016400D03*
X049250Y017500D03*
X049250Y018500D03*
X048150Y019000D03*
X049250Y019300D03*
X051450Y019800D03*
X047650Y014700D03*
X048350Y014300D03*
X049650Y013700D03*
X049250Y012500D03*
X049350Y011500D03*
X049550Y010300D03*
X046853Y010300D03*
X046250Y010500D03*
X046250Y010000D03*
X046250Y009500D03*
X044350Y009700D03*
X044350Y009200D03*
X042850Y009700D03*
X042250Y009700D03*
X041450Y009900D03*
X041450Y009400D03*
X041450Y008900D03*
X041450Y008400D03*
X041450Y007900D03*
X041850Y007500D03*
X046250Y005900D03*
X047650Y005100D03*
X041450Y010400D03*
X041450Y010900D03*
X042350Y011000D03*
X042850Y011000D03*
X043350Y011000D03*
X043350Y012500D03*
X042850Y013500D03*
X042850Y014200D03*
X042850Y014700D03*
X045450Y013000D03*
X046850Y011500D03*
X046250Y011100D03*
D25*
X048050Y003000D03*
X049050Y003000D03*
D26*
X042650Y006300D03*
X040850Y006400D03*
X039150Y006200D03*
X038850Y006500D03*
X038350Y006600D03*
X039150Y007900D03*
X039150Y008600D03*
X039150Y009300D03*
X039150Y010000D03*
X039050Y010700D03*
X038250Y010800D03*
X037650Y010400D03*
X036250Y010450D03*
X036250Y010100D03*
X036250Y009750D03*
X036250Y009400D03*
X036950Y009300D03*
X035750Y008600D03*
X034250Y009000D03*
X034200Y008400D03*
X034850Y007500D03*
X034400Y007200D03*
X033800Y007200D03*
X032350Y006400D03*
X032150Y006800D03*
X031650Y006700D03*
X030950Y007300D03*
X032200Y007850D03*
X030150Y008900D03*
X028650Y008600D03*
X027950Y008750D03*
X027650Y008300D03*
X027950Y007700D03*
X026750Y007700D03*
X026350Y008200D03*
X025850Y009200D03*
X025850Y009800D03*
X027200Y009350D03*
X028950Y010000D03*
X028850Y010700D03*
X028050Y010900D03*
X028550Y011100D03*
X030150Y011600D03*
X030950Y011600D03*
X030550Y011200D03*
X032250Y010300D03*
X033450Y011400D03*
X034950Y010600D03*
X035150Y009900D03*
X036350Y011100D03*
X036950Y011100D03*
X036150Y012100D03*
X036350Y013000D03*
X035950Y013500D03*
X035450Y013100D03*
X034800Y013550D03*
X034150Y014350D03*
X035350Y014700D03*
X035850Y014400D03*
X036250Y014200D03*
X036650Y014000D03*
X038150Y013800D03*
X038750Y013300D03*
X040050Y013800D03*
X040250Y013400D03*
X040650Y015000D03*
X039550Y015200D03*
X039850Y015800D03*
X039550Y016300D03*
X040450Y016800D03*
X040850Y017100D03*
X039650Y017600D03*
X039350Y017300D03*
X038550Y017800D03*
X038150Y017500D03*
X036950Y017900D03*
X036550Y018000D03*
X035100Y018300D03*
X033150Y018600D03*
X032550Y018500D03*
X032750Y018100D03*
X031850Y018900D03*
X031450Y018900D03*
X031050Y018900D03*
X030350Y018900D03*
X029900Y018850D03*
X027850Y017900D03*
X027650Y018300D03*
X027050Y018300D03*
X026350Y018500D03*
X027050Y018850D03*
X026250Y018900D03*
X025850Y019000D03*
X025550Y019300D03*
X023750Y019700D03*
X020950Y018500D03*
X021550Y018100D03*
X022550Y017900D03*
X020900Y017850D03*
X019950Y016600D03*
X019200Y016550D03*
X018900Y016200D03*
X017550Y016600D03*
X014850Y016900D03*
X012550Y015700D03*
X011650Y013500D03*
X013350Y011000D03*
X012450Y010400D03*
X012650Y009800D03*
X013150Y009800D03*
X013550Y009800D03*
X013150Y009400D03*
X012650Y009400D03*
X014250Y009800D03*
X014650Y009800D03*
X014650Y010200D03*
X014250Y010200D03*
X015650Y009800D03*
X016050Y010300D03*
X016650Y010800D03*
X017150Y011450D03*
X017750Y011900D03*
X019350Y011500D03*
X019350Y012500D03*
X019050Y012800D03*
X020550Y012000D03*
X022250Y012200D03*
X022250Y011400D03*
X020050Y010700D03*
X018050Y009900D03*
X017050Y009500D03*
X017450Y010600D03*
X015050Y011100D03*
X021050Y013200D03*
X022950Y013300D03*
X023350Y013500D03*
X023750Y013700D03*
X024150Y013900D03*
X024450Y014300D03*
X024050Y014600D03*
X022650Y014800D03*
X021550Y014800D03*
X020050Y015100D03*
X022650Y016350D03*
X023450Y016700D03*
X023750Y016300D03*
X023550Y015900D03*
X025350Y016100D03*
X026050Y016100D03*
X026500Y016100D03*
X026950Y016100D03*
X027250Y016500D03*
X027450Y016900D03*
X027950Y016800D03*
X028650Y016900D03*
X028650Y016400D03*
X029450Y016500D03*
X030350Y016600D03*
X030350Y017100D03*
X030950Y017000D03*
X030950Y016600D03*
X032550Y016900D03*
X033200Y016800D03*
X033650Y016800D03*
X033750Y016400D03*
X032600Y015700D03*
X033150Y015150D03*
X034250Y015500D03*
X035650Y015300D03*
X036050Y015900D03*
X037250Y016300D03*
X041350Y016300D03*
X042150Y015400D03*
X045350Y016300D03*
X045350Y017000D03*
X044550Y017200D03*
X043550Y017400D03*
X042250Y018200D03*
X041550Y017900D03*
X036650Y020300D03*
X035850Y020050D03*
X035450Y020300D03*
X034500Y019750D03*
X033650Y019500D03*
X033350Y019200D03*
X032650Y019200D03*
X029950Y020200D03*
X028950Y020150D03*
X028550Y020000D03*
X028250Y019750D03*
X028350Y017800D03*
X028650Y017500D03*
X029450Y017700D03*
X027550Y015700D03*
X025750Y015800D03*
X025350Y014900D03*
X025350Y014300D03*
X027450Y014400D03*
X028850Y013700D03*
X028550Y013400D03*
X028450Y012800D03*
X029750Y012000D03*
X030150Y012400D03*
X030550Y012000D03*
X030950Y012400D03*
X031350Y012000D03*
X030550Y012800D03*
X031950Y013700D03*
X032150Y013300D03*
X032850Y013300D03*
X032050Y014100D03*
X031350Y014850D03*
X029250Y014100D03*
X025950Y012100D03*
X024950Y012000D03*
X025250Y011400D03*
X025650Y011400D03*
X025850Y010800D03*
X024650Y009400D03*
X023850Y008200D03*
X022600Y007700D03*
X022250Y008600D03*
X022150Y009500D03*
X017350Y007700D03*
X017550Y007000D03*
X017750Y006600D03*
X018550Y006300D03*
X019750Y006100D03*
X018750Y007100D03*
X015750Y007200D03*
X014550Y007700D03*
X012950Y007300D03*
X012050Y007100D03*
X011350Y006600D03*
X013250Y006100D03*
X013250Y005700D03*
X013650Y005700D03*
X014050Y005700D03*
X014050Y006100D03*
X013650Y006100D03*
X014450Y006100D03*
X014450Y005700D03*
X015450Y005300D03*
X014550Y004600D03*
X016550Y004600D03*
X017550Y004600D03*
X019550Y004600D03*
X020550Y004600D03*
X021550Y004600D03*
X023550Y005500D03*
X024000Y005500D03*
X024450Y005200D03*
X025450Y004600D03*
X026350Y005300D03*
X025750Y005700D03*
X024150Y005900D03*
X023250Y003200D03*
X030950Y003900D03*
X031450Y003900D03*
X032050Y003700D03*
X033350Y004000D03*
X033950Y004100D03*
X034150Y003200D03*
X032750Y002700D03*
X036850Y002200D03*
X040450Y002100D03*
X041550Y003500D03*
X035850Y007300D03*
X032750Y006200D03*
X041450Y011600D03*
X045450Y012500D03*
X047550Y007900D03*
X048050Y007900D03*
X033750Y012300D03*
X037150Y020700D03*
X036950Y021500D03*
X035050Y021100D03*
X029450Y021900D03*
X023650Y021500D03*
X015350Y001900D03*
D27*
X006739Y015400D02*
X006539Y015600D01*
X004750Y015600D01*
X004550Y015400D01*
X004350Y015400D01*
X004050Y015700D01*
X004050Y018500D01*
X004250Y018700D01*
X004250Y020100D01*
D28*
X004450Y010500D02*
X004450Y008600D01*
X004050Y008400D02*
X004050Y009700D01*
D29*
X025950Y012050D02*
X026250Y011750D01*
X026250Y010400D01*
X027200Y009350D01*
X025950Y012050D02*
X025950Y012100D01*
M02*
